%TF.GenerationSoftware,KiCad,Pcbnew,10.0.5*%
%TF.CreationDate,2026-08-31T00:34:44+01:00*%
%TF.ProjectId,fireangel_xiao_carrier,66697265-616e-4676-956c-5f7869616f5f,rev?*%
%TF.SameCoordinates,Original*%
%TF.FileFunction,Copper,L2,Bot*%
%TF.FilePolarity,Positive*%
%FSLAX46Y46*%
G04 Gerber Fmt 4.6, Leading zero omitted, Abs format (unit mm)*
G04 Created by KiCad (PCBNEW 10.0.5) date 2026-08-31 00:34:44*
%MOMM*%
%LPD*%
G01*
G04 APERTURE LIST*
%TA.AperFunction,ComponentPad*%
%ADD10C,2.800000*%
%TD*%
%TA.AperFunction,ComponentPad*%
%ADD11R,1.800000X1.800000*%
%TD*%
%TA.AperFunction,ComponentPad*%
%ADD12C,1.800000*%
%TD*%
%TA.AperFunction,ViaPad*%
%ADD13C,0.800000*%
%TD*%
%TA.AperFunction,Conductor*%
%ADD14C,0.300000*%
%TD*%
G04 APERTURE END LIST*
D10*
%TO.P,ANT1,1*%
%TO.N,ANT*%
X36000000Y-67385000D03*
%TD*%
D11*
%TO.P,J4,1*%
%TO.N,GND*%
X24270000Y-64845000D03*
D12*
%TO.P,J4,2*%
%TO.N,ANT*%
X24270000Y-67385000D03*
%TD*%
D11*
%TO.P,J2,1*%
%TO.N,N/C*%
X30620000Y-6000000D03*
D12*
%TO.P,J2,2*%
%TO.N,GND*%
X30620000Y-8540000D03*
%TO.P,J2,3*%
%TO.N,+3V3*%
X30620000Y-11080000D03*
%TO.P,J2,4*%
%TO.N,MOSI*%
X30620000Y-13620000D03*
%TO.P,J2,5*%
%TO.N,MISO*%
X30620000Y-16160000D03*
%TO.P,J2,6*%
%TO.N,SCK*%
X30620000Y-18700000D03*
%TO.P,J2,7*%
%TO.N,N/C*%
X30620000Y-21240000D03*
%TD*%
D11*
%TO.P,J3,1*%
%TO.N,CS*%
X21730000Y-35000000D03*
D12*
%TO.P,J3,2*%
%TO.N,IRQ*%
X21730000Y-37540000D03*
%TO.P,J3,3*%
%TO.N,MOSI*%
X21730000Y-40080000D03*
%TO.P,J3,4*%
%TO.N,SCK*%
X21730000Y-42620000D03*
%TO.P,J3,5*%
%TO.N,GND*%
X21730000Y-45160000D03*
%TO.P,J3,6*%
%TO.N,+3V3*%
X24270000Y-35000000D03*
%TO.P,J3,7*%
%TO.N,N/C*%
X24270000Y-37540000D03*
%TO.P,J3,8*%
X24270000Y-40080000D03*
%TO.P,J3,9*%
%TO.N,+3V3*%
X24270000Y-42620000D03*
%TO.P,J3,10*%
%TO.N,MISO*%
X24270000Y-45160000D03*
%TD*%
D11*
%TO.P,J1,1*%
%TO.N,N/C*%
X15380000Y-6000000D03*
D12*
%TO.P,J1,2*%
X15380000Y-8540000D03*
%TO.P,J1,3*%
%TO.N,IRQ*%
X15380000Y-11080000D03*
%TO.P,J1,4*%
%TO.N,CS*%
X15380000Y-13620000D03*
%TO.P,J1,5*%
%TO.N,N/C*%
X15380000Y-16160000D03*
%TO.P,J1,6*%
X15380000Y-18700000D03*
%TO.P,J1,7*%
X15380000Y-21240000D03*
%TD*%
D13*
%TO.N,SCK*%
X10000000Y-30000000D03*
%TO.N,MISO*%
X38000000Y-16160000D03*
%TD*%
%TO.N,MOSI*%
D14*
X39000000Y-13620000D02*
X39000000Y-26000000D01*
X39000000Y-26000000D02*
X12000000Y-26000000D01*
X12000000Y-26000000D02*
X12000000Y-40080000D01*
X12000000Y-40080000D02*
X21730000Y-40080000D01*
X30620000Y-13620000D02*
X39000000Y-13620000D01*
%TO.N,SCK*%
X21730000Y-42620000D02*
X10000000Y-42620000D01*
X10000000Y-42620000D02*
X10000000Y-30000000D01*
%TO.N,MISO*%
X30620000Y-16160000D02*
X38000000Y-16160000D01*
%TD*%
%TA.AperFunction,Conductor*%
%TO.N,GND*%
G36*
X23054712Y-42886238D02*
G01*
X23106188Y-42933482D01*
X23117931Y-42959196D01*
X23157454Y-43080836D01*
X23243240Y-43249199D01*
X23354310Y-43402073D01*
X23487927Y-43535690D01*
X23640801Y-43646760D01*
X23720347Y-43687290D01*
X23809163Y-43732545D01*
X23809165Y-43732545D01*
X23809168Y-43732547D01*
X23898734Y-43761649D01*
X23930803Y-43772069D01*
X23988478Y-43811507D01*
X24015676Y-43875866D01*
X24003761Y-43944712D01*
X23956516Y-43996188D01*
X23930803Y-44007931D01*
X23809163Y-44047454D01*
X23640800Y-44133240D01*
X23553579Y-44196610D01*
X23487927Y-44244310D01*
X23487925Y-44244312D01*
X23487924Y-44244312D01*
X23354312Y-44377924D01*
X23354312Y-44377925D01*
X23354310Y-44377927D01*
X23321011Y-44423759D01*
X23243240Y-44530800D01*
X23157454Y-44699163D01*
X23117668Y-44821612D01*
X23078230Y-44879287D01*
X23013871Y-44906485D01*
X22945025Y-44894570D01*
X22893549Y-44847325D01*
X22881806Y-44821611D01*
X22842085Y-44699362D01*
X22756333Y-44531066D01*
X22678371Y-44423759D01*
X22678370Y-44423759D01*
X22173670Y-44928460D01*
X22130099Y-44852993D01*
X22037007Y-44759901D01*
X21961538Y-44716329D01*
X22466239Y-44211627D01*
X22358933Y-44133666D01*
X22190637Y-44047914D01*
X22068388Y-44008193D01*
X22010712Y-43968755D01*
X21983514Y-43904397D01*
X21995429Y-43835550D01*
X22042673Y-43784075D01*
X22068382Y-43772333D01*
X22190832Y-43732547D01*
X22359199Y-43646760D01*
X22512073Y-43535690D01*
X22645690Y-43402073D01*
X22756760Y-43249199D01*
X22842547Y-43080832D01*
X22882069Y-42959195D01*
X22921507Y-42901521D01*
X22985866Y-42874323D01*
X23054712Y-42886238D01*
G37*
%TD.AperFunction*%
%TA.AperFunction,Conductor*%
G36*
X45442539Y-520185D02*
G01*
X45488294Y-572989D01*
X45499500Y-624500D01*
X45499500Y-71375500D01*
X45479815Y-71442539D01*
X45427011Y-71488294D01*
X45375500Y-71499500D01*
X624500Y-71499500D01*
X557461Y-71479815D01*
X511706Y-71427011D01*
X500500Y-71375500D01*
X500500Y-68374038D01*
X1899500Y-68374038D01*
X1899500Y-68625961D01*
X1938910Y-68874785D01*
X2016760Y-69114383D01*
X2131132Y-69338848D01*
X2279201Y-69542649D01*
X2279205Y-69542654D01*
X2457345Y-69720794D01*
X2457350Y-69720798D01*
X2635117Y-69849952D01*
X2661155Y-69868870D01*
X2804184Y-69941747D01*
X2885616Y-69983239D01*
X2885618Y-69983239D01*
X2885621Y-69983241D01*
X3125215Y-70061090D01*
X3374038Y-70100500D01*
X3374039Y-70100500D01*
X3625961Y-70100500D01*
X3625962Y-70100500D01*
X3874785Y-70061090D01*
X4114379Y-69983241D01*
X4338845Y-69868870D01*
X4542656Y-69720793D01*
X4720793Y-69542656D01*
X4868870Y-69338845D01*
X4983241Y-69114379D01*
X5061090Y-68874785D01*
X5100500Y-68625962D01*
X5100500Y-68374038D01*
X5061090Y-68125215D01*
X4983241Y-67885621D01*
X4983239Y-67885618D01*
X4983239Y-67885616D01*
X4897560Y-67717463D01*
X4868870Y-67661155D01*
X4749217Y-67496466D01*
X4720798Y-67457350D01*
X4720794Y-67457345D01*
X4553962Y-67290513D01*
X23069500Y-67290513D01*
X23069500Y-67479486D01*
X23099059Y-67666118D01*
X23157454Y-67845836D01*
X23201760Y-67932790D01*
X23243240Y-68014199D01*
X23354310Y-68167073D01*
X23487927Y-68300690D01*
X23640801Y-68411760D01*
X23720347Y-68452290D01*
X23809163Y-68497545D01*
X23809165Y-68497545D01*
X23809168Y-68497547D01*
X23843275Y-68508629D01*
X23988881Y-68555940D01*
X24175514Y-68585500D01*
X24175519Y-68585500D01*
X24364486Y-68585500D01*
X24551118Y-68555940D01*
X24730832Y-68497547D01*
X24899199Y-68411760D01*
X25052073Y-68300690D01*
X25185690Y-68167073D01*
X25296760Y-68014199D01*
X25382547Y-67845832D01*
X25440940Y-67666118D01*
X25441727Y-67661151D01*
X25470500Y-67479486D01*
X25470500Y-67290516D01*
X25470240Y-67288874D01*
X25470240Y-67288871D01*
X25467813Y-67273549D01*
X34299500Y-67273549D01*
X34299500Y-67496450D01*
X34299501Y-67496466D01*
X34328594Y-67717452D01*
X34328595Y-67717457D01*
X34328596Y-67717463D01*
X34373654Y-67885621D01*
X34386290Y-67932780D01*
X34386293Y-67932790D01*
X34471593Y-68138722D01*
X34471595Y-68138726D01*
X34583052Y-68331774D01*
X34583057Y-68331780D01*
X34583058Y-68331782D01*
X34718751Y-68508622D01*
X34718757Y-68508629D01*
X34876370Y-68666242D01*
X34876376Y-68666247D01*
X35053226Y-68801948D01*
X35246274Y-68913405D01*
X35452219Y-68998710D01*
X35667537Y-69056404D01*
X35888543Y-69085500D01*
X35888550Y-69085500D01*
X36111450Y-69085500D01*
X36111457Y-69085500D01*
X36332463Y-69056404D01*
X36547781Y-68998710D01*
X36753726Y-68913405D01*
X36946774Y-68801948D01*
X37123624Y-68666247D01*
X37281247Y-68508624D01*
X37384518Y-68374038D01*
X40899500Y-68374038D01*
X40899500Y-68625961D01*
X40938910Y-68874785D01*
X41016760Y-69114383D01*
X41131132Y-69338848D01*
X41279201Y-69542649D01*
X41279205Y-69542654D01*
X41457345Y-69720794D01*
X41457350Y-69720798D01*
X41635117Y-69849952D01*
X41661155Y-69868870D01*
X41804184Y-69941747D01*
X41885616Y-69983239D01*
X41885618Y-69983239D01*
X41885621Y-69983241D01*
X42125215Y-70061090D01*
X42374038Y-70100500D01*
X42374039Y-70100500D01*
X42625961Y-70100500D01*
X42625962Y-70100500D01*
X42874785Y-70061090D01*
X43114379Y-69983241D01*
X43338845Y-69868870D01*
X43542656Y-69720793D01*
X43720793Y-69542656D01*
X43868870Y-69338845D01*
X43983241Y-69114379D01*
X44061090Y-68874785D01*
X44100500Y-68625962D01*
X44100500Y-68374038D01*
X44061090Y-68125215D01*
X43983241Y-67885621D01*
X43983239Y-67885618D01*
X43983239Y-67885616D01*
X43897560Y-67717463D01*
X43868870Y-67661155D01*
X43749217Y-67496466D01*
X43720798Y-67457350D01*
X43720794Y-67457345D01*
X43542654Y-67279205D01*
X43542649Y-67279201D01*
X43338848Y-67131132D01*
X43338847Y-67131131D01*
X43338845Y-67131130D01*
X43268747Y-67095413D01*
X43114383Y-67016760D01*
X42874785Y-66938910D01*
X42781708Y-66924168D01*
X42625962Y-66899500D01*
X42374038Y-66899500D01*
X42249626Y-66919205D01*
X42125214Y-66938910D01*
X41885616Y-67016760D01*
X41661151Y-67131132D01*
X41457350Y-67279201D01*
X41457345Y-67279205D01*
X41279205Y-67457345D01*
X41279201Y-67457350D01*
X41131132Y-67661151D01*
X41016760Y-67885616D01*
X40938910Y-68125214D01*
X40899500Y-68374038D01*
X37384518Y-68374038D01*
X37416948Y-68331774D01*
X37528405Y-68138726D01*
X37613710Y-67932781D01*
X37671404Y-67717463D01*
X37700500Y-67496457D01*
X37700500Y-67273543D01*
X37671404Y-67052537D01*
X37613710Y-66837219D01*
X37528405Y-66631274D01*
X37416948Y-66438226D01*
X37281247Y-66261376D01*
X37281242Y-66261370D01*
X37123629Y-66103757D01*
X37123622Y-66103751D01*
X36946782Y-65968058D01*
X36946780Y-65968057D01*
X36946774Y-65968052D01*
X36753726Y-65856595D01*
X36753722Y-65856593D01*
X36547790Y-65771293D01*
X36547783Y-65771291D01*
X36547781Y-65771290D01*
X36332463Y-65713596D01*
X36332457Y-65713595D01*
X36332452Y-65713594D01*
X36111466Y-65684501D01*
X36111463Y-65684500D01*
X36111457Y-65684500D01*
X35888543Y-65684500D01*
X35888537Y-65684500D01*
X35888533Y-65684501D01*
X35667547Y-65713594D01*
X35667540Y-65713595D01*
X35667537Y-65713596D01*
X35452219Y-65771290D01*
X35452209Y-65771293D01*
X35246277Y-65856593D01*
X35246273Y-65856595D01*
X35053226Y-65968052D01*
X35053217Y-65968058D01*
X34876377Y-66103751D01*
X34876370Y-66103757D01*
X34718757Y-66261370D01*
X34718751Y-66261377D01*
X34583058Y-66438217D01*
X34583052Y-66438226D01*
X34471595Y-66631273D01*
X34471593Y-66631277D01*
X34386293Y-66837209D01*
X34386290Y-66837219D01*
X34338183Y-67016760D01*
X34328597Y-67052534D01*
X34328594Y-67052547D01*
X34299501Y-67273533D01*
X34299500Y-67273549D01*
X25467813Y-67273549D01*
X25440940Y-67103881D01*
X25382545Y-66924163D01*
X25296759Y-66755800D01*
X25185690Y-66602927D01*
X25052073Y-66469310D01*
X24899199Y-66358240D01*
X24744630Y-66279483D01*
X24693835Y-66231510D01*
X24677040Y-66163689D01*
X24699577Y-66097554D01*
X24754292Y-66054102D01*
X24800926Y-66044999D01*
X25214786Y-66044999D01*
X25214808Y-66044997D01*
X25239869Y-66042091D01*
X25239873Y-66042090D01*
X25342474Y-65996788D01*
X25342479Y-65996785D01*
X25421785Y-65917479D01*
X25421788Y-65917474D01*
X25467089Y-65814877D01*
X25467089Y-65814875D01*
X25469999Y-65789794D01*
X25470000Y-65789791D01*
X25470000Y-64995000D01*
X24747445Y-64995000D01*
X24770000Y-64910826D01*
X24770000Y-64779174D01*
X24747445Y-64695000D01*
X25469999Y-64695000D01*
X25469999Y-63900214D01*
X25469997Y-63900191D01*
X25467091Y-63875130D01*
X25467090Y-63875126D01*
X25421788Y-63772525D01*
X25421785Y-63772520D01*
X25342479Y-63693214D01*
X25342474Y-63693211D01*
X25239876Y-63647910D01*
X25214794Y-63645000D01*
X24420000Y-63645000D01*
X24420000Y-64367554D01*
X24335826Y-64345000D01*
X24204174Y-64345000D01*
X24120000Y-64367554D01*
X24120000Y-63645000D01*
X23325214Y-63645000D01*
X23325191Y-63645002D01*
X23300130Y-63647908D01*
X23300126Y-63647909D01*
X23197525Y-63693211D01*
X23197520Y-63693214D01*
X23118214Y-63772520D01*
X23118211Y-63772525D01*
X23072910Y-63875122D01*
X23072910Y-63875124D01*
X23070000Y-63900205D01*
X23070000Y-64695000D01*
X23792555Y-64695000D01*
X23770000Y-64779174D01*
X23770000Y-64910826D01*
X23792555Y-64995000D01*
X23070001Y-64995000D01*
X23070001Y-65789785D01*
X23070002Y-65789808D01*
X23072908Y-65814869D01*
X23072909Y-65814873D01*
X23118211Y-65917474D01*
X23118214Y-65917479D01*
X23197520Y-65996785D01*
X23197525Y-65996788D01*
X23300123Y-66042089D01*
X23325206Y-66044999D01*
X23739072Y-66044999D01*
X23806111Y-66064683D01*
X23851866Y-66117487D01*
X23861810Y-66186646D01*
X23832785Y-66250202D01*
X23795367Y-66279484D01*
X23640800Y-66358240D01*
X23553579Y-66421610D01*
X23487927Y-66469310D01*
X23487925Y-66469312D01*
X23487924Y-66469312D01*
X23354312Y-66602924D01*
X23354312Y-66602925D01*
X23354310Y-66602927D01*
X23306610Y-66668579D01*
X23243240Y-66755800D01*
X23157454Y-66924163D01*
X23099059Y-67103881D01*
X23069500Y-67290513D01*
X4553962Y-67290513D01*
X4542654Y-67279205D01*
X4542649Y-67279201D01*
X4338848Y-67131132D01*
X4338847Y-67131131D01*
X4338845Y-67131130D01*
X4268747Y-67095413D01*
X4114383Y-67016760D01*
X3874785Y-66938910D01*
X3781708Y-66924168D01*
X3625962Y-66899500D01*
X3374038Y-66899500D01*
X3249626Y-66919205D01*
X3125214Y-66938910D01*
X2885616Y-67016760D01*
X2661151Y-67131132D01*
X2457350Y-67279201D01*
X2457345Y-67279205D01*
X2279205Y-67457345D01*
X2279201Y-67457350D01*
X2131132Y-67661151D01*
X2016760Y-67885616D01*
X1938910Y-68125214D01*
X1899500Y-68374038D01*
X500500Y-68374038D01*
X500500Y-30068995D01*
X9299499Y-30068995D01*
X9326418Y-30204322D01*
X9326421Y-30204332D01*
X9379221Y-30331804D01*
X9379228Y-30331817D01*
X9455884Y-30446540D01*
X9455885Y-30446541D01*
X9455886Y-30446542D01*
X9513182Y-30503838D01*
X9546666Y-30565159D01*
X9549500Y-30591518D01*
X9549500Y-42679309D01*
X9580201Y-42793886D01*
X9639511Y-42896613D01*
X9723387Y-42980489D01*
X9826114Y-43039799D01*
X9940691Y-43070500D01*
X10059309Y-43070500D01*
X20536201Y-43070500D01*
X20603240Y-43090185D01*
X20646685Y-43138204D01*
X20703240Y-43249199D01*
X20814310Y-43402073D01*
X20947927Y-43535690D01*
X21100801Y-43646760D01*
X21269168Y-43732547D01*
X21391612Y-43772331D01*
X21449287Y-43811769D01*
X21476485Y-43876127D01*
X21464570Y-43944974D01*
X21417326Y-43996449D01*
X21391612Y-44008193D01*
X21269361Y-44047915D01*
X21101064Y-44133667D01*
X21101062Y-44133668D01*
X20993759Y-44211626D01*
X20993759Y-44211627D01*
X21498461Y-44716329D01*
X21422993Y-44759901D01*
X21329901Y-44852993D01*
X21286329Y-44928461D01*
X20781627Y-44423759D01*
X20781626Y-44423759D01*
X20703668Y-44531062D01*
X20703667Y-44531064D01*
X20617914Y-44699362D01*
X20559548Y-44878997D01*
X20530000Y-45065552D01*
X20530000Y-45254447D01*
X20559548Y-45441002D01*
X20617914Y-45620637D01*
X20703666Y-45788933D01*
X20781627Y-45896239D01*
X21286329Y-45391538D01*
X21329901Y-45467007D01*
X21422993Y-45560099D01*
X21498460Y-45603670D01*
X20993759Y-46108370D01*
X20993759Y-46108371D01*
X21101066Y-46186333D01*
X21269362Y-46272085D01*
X21448997Y-46330451D01*
X21635553Y-46360000D01*
X21824447Y-46360000D01*
X22011002Y-46330451D01*
X22190637Y-46272085D01*
X22358940Y-46186329D01*
X22466239Y-46108373D01*
X22466240Y-46108371D01*
X21961538Y-45603670D01*
X22037007Y-45560099D01*
X22130099Y-45467007D01*
X22173670Y-45391539D01*
X22678371Y-45896240D01*
X22678373Y-45896239D01*
X22756329Y-45788940D01*
X22842086Y-45620635D01*
X22881806Y-45498389D01*
X22921243Y-45440713D01*
X22985601Y-45413514D01*
X23054448Y-45425428D01*
X23105924Y-45472672D01*
X23117668Y-45498387D01*
X23157454Y-45620836D01*
X23243104Y-45788933D01*
X23243240Y-45789199D01*
X23354310Y-45942073D01*
X23487927Y-46075690D01*
X23640801Y-46186760D01*
X23720347Y-46227290D01*
X23809163Y-46272545D01*
X23809165Y-46272545D01*
X23809168Y-46272547D01*
X23905497Y-46303846D01*
X23988881Y-46330940D01*
X24175514Y-46360500D01*
X24175519Y-46360500D01*
X24364486Y-46360500D01*
X24551118Y-46330940D01*
X24552623Y-46330451D01*
X24730832Y-46272547D01*
X24899199Y-46186760D01*
X25052073Y-46075690D01*
X25185690Y-45942073D01*
X25296760Y-45789199D01*
X25382547Y-45620832D01*
X25440940Y-45441118D01*
X25451866Y-45372132D01*
X25470500Y-45254486D01*
X25470500Y-45065513D01*
X25440940Y-44878881D01*
X25382545Y-44699163D01*
X25296894Y-44531064D01*
X25296760Y-44530801D01*
X25185690Y-44377927D01*
X25052073Y-44244310D01*
X24899199Y-44133240D01*
X24730836Y-44047454D01*
X24656472Y-44023291D01*
X24609195Y-44007930D01*
X24551521Y-43968493D01*
X24524323Y-43904134D01*
X24536238Y-43835288D01*
X24583482Y-43783812D01*
X24609194Y-43772069D01*
X24730832Y-43732547D01*
X24899199Y-43646760D01*
X25052073Y-43535690D01*
X25185690Y-43402073D01*
X25296760Y-43249199D01*
X25382547Y-43080832D01*
X25440940Y-42901118D01*
X25445184Y-42874323D01*
X25470500Y-42714486D01*
X25470500Y-42525513D01*
X25440940Y-42338881D01*
X25382545Y-42159163D01*
X25296759Y-41990800D01*
X25185690Y-41837927D01*
X25052073Y-41704310D01*
X24899199Y-41593240D01*
X24730836Y-41507454D01*
X24656472Y-41483291D01*
X24609195Y-41467930D01*
X24551521Y-41428493D01*
X24524323Y-41364134D01*
X24536238Y-41295288D01*
X24583482Y-41243812D01*
X24609194Y-41232069D01*
X24730832Y-41192547D01*
X24899199Y-41106760D01*
X25052073Y-40995690D01*
X25185690Y-40862073D01*
X25296760Y-40709199D01*
X25382547Y-40540832D01*
X25440940Y-40361118D01*
X25445184Y-40334323D01*
X25470500Y-40174486D01*
X25470500Y-39985513D01*
X25440940Y-39798881D01*
X25382545Y-39619163D01*
X25296759Y-39450800D01*
X25185690Y-39297927D01*
X25052073Y-39164310D01*
X24899199Y-39053240D01*
X24730836Y-38967454D01*
X24656472Y-38943291D01*
X24609195Y-38927930D01*
X24551521Y-38888493D01*
X24524323Y-38824134D01*
X24536238Y-38755288D01*
X24583482Y-38703812D01*
X24609194Y-38692069D01*
X24730832Y-38652547D01*
X24899199Y-38566760D01*
X25052073Y-38455690D01*
X25185690Y-38322073D01*
X25296760Y-38169199D01*
X25382547Y-38000832D01*
X25440940Y-37821118D01*
X25445184Y-37794323D01*
X25470500Y-37634486D01*
X25470500Y-37445513D01*
X25440940Y-37258881D01*
X25382545Y-37079163D01*
X25296759Y-36910800D01*
X25185690Y-36757927D01*
X25052073Y-36624310D01*
X24899199Y-36513240D01*
X24899191Y-36513236D01*
X24730836Y-36427454D01*
X24656472Y-36403291D01*
X24609195Y-36387930D01*
X24551521Y-36348493D01*
X24524323Y-36284134D01*
X24536238Y-36215288D01*
X24583482Y-36163812D01*
X24609194Y-36152069D01*
X24730832Y-36112547D01*
X24899199Y-36026760D01*
X25052073Y-35915690D01*
X25185690Y-35782073D01*
X25296760Y-35629199D01*
X25382547Y-35460832D01*
X25440940Y-35281118D01*
X25470500Y-35094486D01*
X25470500Y-34905513D01*
X25440940Y-34718881D01*
X25399706Y-34591977D01*
X25382547Y-34539168D01*
X25382545Y-34539165D01*
X25382545Y-34539163D01*
X25296759Y-34370800D01*
X25185690Y-34217927D01*
X25052073Y-34084310D01*
X24899199Y-33973240D01*
X24730836Y-33887454D01*
X24551118Y-33829059D01*
X24364486Y-33799500D01*
X24364481Y-33799500D01*
X24175519Y-33799500D01*
X24175514Y-33799500D01*
X23988881Y-33829059D01*
X23809163Y-33887454D01*
X23640800Y-33973240D01*
X23562661Y-34030012D01*
X23487927Y-34084310D01*
X23487925Y-34084312D01*
X23487924Y-34084312D01*
X23354312Y-34217924D01*
X23354312Y-34217925D01*
X23354310Y-34217927D01*
X23306610Y-34283579D01*
X23243240Y-34370800D01*
X23164984Y-34524386D01*
X23117009Y-34575182D01*
X23049188Y-34591977D01*
X22983053Y-34569439D01*
X22939602Y-34514724D01*
X22930499Y-34468091D01*
X22930499Y-34055143D01*
X22930499Y-34055136D01*
X22930497Y-34055117D01*
X22927586Y-34030012D01*
X22927585Y-34030010D01*
X22927585Y-34030009D01*
X22882206Y-33927235D01*
X22802765Y-33847794D01*
X22802763Y-33847793D01*
X22699992Y-33802415D01*
X22674865Y-33799500D01*
X20785143Y-33799500D01*
X20785117Y-33799502D01*
X20760012Y-33802413D01*
X20760008Y-33802415D01*
X20657235Y-33847793D01*
X20577794Y-33927234D01*
X20532415Y-34030006D01*
X20532415Y-34030008D01*
X20529500Y-34055131D01*
X20529500Y-35944856D01*
X20529502Y-35944882D01*
X20532413Y-35969987D01*
X20532415Y-35969991D01*
X20577793Y-36072764D01*
X20577794Y-36072765D01*
X20657235Y-36152206D01*
X20760009Y-36197585D01*
X20785135Y-36200500D01*
X21198092Y-36200499D01*
X21265129Y-36220183D01*
X21310884Y-36272987D01*
X21320828Y-36342146D01*
X21291803Y-36405702D01*
X21254385Y-36434983D01*
X21100805Y-36513236D01*
X20998885Y-36587286D01*
X20947927Y-36624310D01*
X20947925Y-36624312D01*
X20947924Y-36624312D01*
X20814312Y-36757924D01*
X20814312Y-36757925D01*
X20814310Y-36757927D01*
X20766610Y-36823579D01*
X20703240Y-36910800D01*
X20617454Y-37079163D01*
X20559059Y-37258881D01*
X20529500Y-37445513D01*
X20529500Y-37634486D01*
X20559059Y-37821118D01*
X20617454Y-38000836D01*
X20703240Y-38169199D01*
X20814310Y-38322073D01*
X20947927Y-38455690D01*
X21100801Y-38566760D01*
X21180347Y-38607290D01*
X21269163Y-38652545D01*
X21269165Y-38652545D01*
X21269168Y-38652547D01*
X21358734Y-38681649D01*
X21390803Y-38692069D01*
X21448478Y-38731507D01*
X21475676Y-38795866D01*
X21463761Y-38864712D01*
X21416516Y-38916188D01*
X21390803Y-38927931D01*
X21269163Y-38967454D01*
X21100800Y-39053240D01*
X21013579Y-39116610D01*
X20947927Y-39164310D01*
X20947925Y-39164312D01*
X20947924Y-39164312D01*
X20814312Y-39297924D01*
X20814312Y-39297925D01*
X20814310Y-39297927D01*
X20766610Y-39363579D01*
X20703240Y-39450800D01*
X20655083Y-39545313D01*
X20649124Y-39557011D01*
X20646686Y-39561795D01*
X20598712Y-39612591D01*
X20536201Y-39629500D01*
X12574500Y-39629500D01*
X12507461Y-39609815D01*
X12461706Y-39557011D01*
X12450500Y-39505500D01*
X12450500Y-26574500D01*
X12470185Y-26507461D01*
X12522989Y-26461706D01*
X12574500Y-26450500D01*
X39059306Y-26450500D01*
X39059309Y-26450500D01*
X39173886Y-26419799D01*
X39276613Y-26360489D01*
X39360489Y-26276613D01*
X39419799Y-26173886D01*
X39450500Y-26059309D01*
X39450500Y-13560691D01*
X39419799Y-13446114D01*
X39360489Y-13343387D01*
X39276613Y-13259511D01*
X39173886Y-13200201D01*
X39059309Y-13169500D01*
X39059306Y-13169500D01*
X31813799Y-13169500D01*
X31746760Y-13149815D01*
X31703314Y-13101795D01*
X31646759Y-12990800D01*
X31535690Y-12837927D01*
X31402073Y-12704310D01*
X31249199Y-12593240D01*
X31080836Y-12507454D01*
X31006472Y-12483291D01*
X30959195Y-12467930D01*
X30901521Y-12428493D01*
X30874323Y-12364134D01*
X30886238Y-12295288D01*
X30933482Y-12243812D01*
X30959194Y-12232069D01*
X31080832Y-12192547D01*
X31249199Y-12106760D01*
X31402073Y-11995690D01*
X31535690Y-11862073D01*
X31646760Y-11709199D01*
X31732547Y-11540832D01*
X31790940Y-11361118D01*
X31820500Y-11174486D01*
X31820500Y-10985513D01*
X31790940Y-10798881D01*
X31732545Y-10619163D01*
X31646759Y-10450800D01*
X31535690Y-10297927D01*
X31402073Y-10164310D01*
X31249199Y-10053240D01*
X31080836Y-9967454D01*
X30976574Y-9933577D01*
X30958386Y-9927667D01*
X30900712Y-9888230D01*
X30873514Y-9823871D01*
X30885429Y-9755025D01*
X30932673Y-9703549D01*
X30958389Y-9691806D01*
X31080635Y-9652086D01*
X31248940Y-9566329D01*
X31356239Y-9488373D01*
X31356240Y-9488371D01*
X30851538Y-8983670D01*
X30927007Y-8940099D01*
X31020099Y-8847007D01*
X31063670Y-8771538D01*
X31568371Y-9276240D01*
X31568373Y-9276239D01*
X31646329Y-9168940D01*
X31732085Y-9000637D01*
X31790451Y-8821002D01*
X31820000Y-8634447D01*
X31820000Y-8445552D01*
X31790451Y-8258997D01*
X31732085Y-8079362D01*
X31646333Y-7911066D01*
X31568371Y-7803759D01*
X31568370Y-7803759D01*
X31063670Y-8308460D01*
X31020099Y-8232993D01*
X30927007Y-8139901D01*
X30851538Y-8096329D01*
X31356239Y-7591627D01*
X31248933Y-7513666D01*
X31094512Y-7434984D01*
X31043716Y-7387009D01*
X31026921Y-7319188D01*
X31049459Y-7253053D01*
X31104174Y-7209602D01*
X31150805Y-7200499D01*
X31564864Y-7200499D01*
X31564879Y-7200497D01*
X31564882Y-7200497D01*
X31589987Y-7197586D01*
X31589988Y-7197585D01*
X31589991Y-7197585D01*
X31692765Y-7152206D01*
X31772206Y-7072765D01*
X31817585Y-6969991D01*
X31820500Y-6944865D01*
X31820499Y-5055136D01*
X31820497Y-5055117D01*
X31817586Y-5030012D01*
X31817585Y-5030010D01*
X31817585Y-5030009D01*
X31772206Y-4927235D01*
X31692765Y-4847794D01*
X31692763Y-4847793D01*
X31589992Y-4802415D01*
X31564865Y-4799500D01*
X29675143Y-4799500D01*
X29675117Y-4799502D01*
X29650012Y-4802413D01*
X29650008Y-4802415D01*
X29547235Y-4847793D01*
X29467794Y-4927234D01*
X29422415Y-5030006D01*
X29422415Y-5030008D01*
X29419500Y-5055131D01*
X29419500Y-6944856D01*
X29419502Y-6944882D01*
X29422413Y-6969987D01*
X29422415Y-6969991D01*
X29467793Y-7072764D01*
X29467794Y-7072765D01*
X29547235Y-7152206D01*
X29650009Y-7197585D01*
X29675135Y-7200500D01*
X30089193Y-7200499D01*
X30156230Y-7220183D01*
X30201985Y-7272987D01*
X30211929Y-7342146D01*
X30182904Y-7405702D01*
X30145487Y-7434983D01*
X29991069Y-7513664D01*
X29991062Y-7513668D01*
X29883759Y-7591626D01*
X29883759Y-7591627D01*
X30388461Y-8096329D01*
X30312993Y-8139901D01*
X30219901Y-8232993D01*
X30176329Y-8308461D01*
X29671627Y-7803759D01*
X29671626Y-7803759D01*
X29593668Y-7911062D01*
X29593667Y-7911064D01*
X29507914Y-8079362D01*
X29449548Y-8258997D01*
X29420000Y-8445552D01*
X29420000Y-8634447D01*
X29449548Y-8821002D01*
X29507914Y-9000637D01*
X29593666Y-9168933D01*
X29671627Y-9276239D01*
X30176329Y-8771538D01*
X30219901Y-8847007D01*
X30312993Y-8940099D01*
X30388460Y-8983670D01*
X29883759Y-9488370D01*
X29883759Y-9488371D01*
X29991066Y-9566333D01*
X30159362Y-9652085D01*
X30281611Y-9691806D01*
X30339286Y-9731243D01*
X30366485Y-9795602D01*
X30354571Y-9864448D01*
X30307327Y-9915924D01*
X30281612Y-9927668D01*
X30159163Y-9967454D01*
X29990800Y-10053240D01*
X29903579Y-10116610D01*
X29837927Y-10164310D01*
X29837925Y-10164312D01*
X29837924Y-10164312D01*
X29704312Y-10297924D01*
X29704312Y-10297925D01*
X29704310Y-10297927D01*
X29656610Y-10363579D01*
X29593240Y-10450800D01*
X29507454Y-10619163D01*
X29449059Y-10798881D01*
X29419500Y-10985513D01*
X29419500Y-11174486D01*
X29449059Y-11361118D01*
X29507454Y-11540836D01*
X29593240Y-11709199D01*
X29704310Y-11862073D01*
X29837927Y-11995690D01*
X29990801Y-12106760D01*
X30070347Y-12147290D01*
X30159163Y-12192545D01*
X30159165Y-12192545D01*
X30159168Y-12192547D01*
X30248734Y-12221649D01*
X30280803Y-12232069D01*
X30338478Y-12271507D01*
X30365676Y-12335866D01*
X30353761Y-12404712D01*
X30306516Y-12456188D01*
X30280803Y-12467931D01*
X30159163Y-12507454D01*
X29990800Y-12593240D01*
X29903579Y-12656610D01*
X29837927Y-12704310D01*
X29837925Y-12704312D01*
X29837924Y-12704312D01*
X29704312Y-12837924D01*
X29704312Y-12837925D01*
X29704310Y-12837927D01*
X29656610Y-12903579D01*
X29593240Y-12990800D01*
X29507454Y-13159163D01*
X29449059Y-13338881D01*
X29419500Y-13525513D01*
X29419500Y-13714486D01*
X29449059Y-13901118D01*
X29507454Y-14080836D01*
X29593240Y-14249199D01*
X29704310Y-14402073D01*
X29837927Y-14535690D01*
X29990801Y-14646760D01*
X30070347Y-14687290D01*
X30159163Y-14732545D01*
X30159165Y-14732545D01*
X30159168Y-14732547D01*
X30248734Y-14761649D01*
X30280803Y-14772069D01*
X30338478Y-14811507D01*
X30365676Y-14875866D01*
X30353761Y-14944712D01*
X30306516Y-14996188D01*
X30280803Y-15007931D01*
X30159163Y-15047454D01*
X29990800Y-15133240D01*
X29903579Y-15196610D01*
X29837927Y-15244310D01*
X29837925Y-15244312D01*
X29837924Y-15244312D01*
X29704312Y-15377924D01*
X29704312Y-15377925D01*
X29704310Y-15377927D01*
X29656610Y-15443579D01*
X29593240Y-15530800D01*
X29507454Y-15699163D01*
X29449059Y-15878881D01*
X29419500Y-16065513D01*
X29419500Y-16254486D01*
X29449059Y-16441118D01*
X29507454Y-16620836D01*
X29579286Y-16761812D01*
X29593240Y-16789199D01*
X29704310Y-16942073D01*
X29837927Y-17075690D01*
X29990801Y-17186760D01*
X30070347Y-17227290D01*
X30159163Y-17272545D01*
X30159165Y-17272545D01*
X30159168Y-17272547D01*
X30248734Y-17301649D01*
X30280803Y-17312069D01*
X30338478Y-17351507D01*
X30365676Y-17415866D01*
X30353761Y-17484712D01*
X30306516Y-17536188D01*
X30280803Y-17547931D01*
X30159163Y-17587454D01*
X29990800Y-17673240D01*
X29903579Y-17736610D01*
X29837927Y-17784310D01*
X29837925Y-17784312D01*
X29837924Y-17784312D01*
X29704312Y-17917924D01*
X29704312Y-17917925D01*
X29704310Y-17917927D01*
X29656610Y-17983579D01*
X29593240Y-18070800D01*
X29507454Y-18239163D01*
X29449059Y-18418881D01*
X29419500Y-18605513D01*
X29419500Y-18794486D01*
X29449059Y-18981118D01*
X29507454Y-19160836D01*
X29593240Y-19329199D01*
X29704310Y-19482073D01*
X29837927Y-19615690D01*
X29990801Y-19726760D01*
X30070347Y-19767290D01*
X30159163Y-19812545D01*
X30159165Y-19812545D01*
X30159168Y-19812547D01*
X30248734Y-19841649D01*
X30280803Y-19852069D01*
X30338478Y-19891507D01*
X30365676Y-19955866D01*
X30353761Y-20024712D01*
X30306516Y-20076188D01*
X30280803Y-20087931D01*
X30159163Y-20127454D01*
X29990800Y-20213240D01*
X29903579Y-20276610D01*
X29837927Y-20324310D01*
X29837925Y-20324312D01*
X29837924Y-20324312D01*
X29704312Y-20457924D01*
X29704312Y-20457925D01*
X29704310Y-20457927D01*
X29656610Y-20523579D01*
X29593240Y-20610800D01*
X29507454Y-20779163D01*
X29449059Y-20958881D01*
X29419500Y-21145513D01*
X29419500Y-21334486D01*
X29449059Y-21521118D01*
X29507454Y-21700836D01*
X29593240Y-21869199D01*
X29704310Y-22022073D01*
X29837927Y-22155690D01*
X29990801Y-22266760D01*
X30070347Y-22307290D01*
X30159163Y-22352545D01*
X30159165Y-22352545D01*
X30159168Y-22352547D01*
X30255497Y-22383846D01*
X30338881Y-22410940D01*
X30525514Y-22440500D01*
X30525519Y-22440500D01*
X30714486Y-22440500D01*
X30901118Y-22410940D01*
X31080832Y-22352547D01*
X31249199Y-22266760D01*
X31402073Y-22155690D01*
X31535690Y-22022073D01*
X31646760Y-21869199D01*
X31732547Y-21700832D01*
X31790940Y-21521118D01*
X31820500Y-21334486D01*
X31820500Y-21145513D01*
X31790940Y-20958881D01*
X31732545Y-20779163D01*
X31646759Y-20610800D01*
X31535690Y-20457927D01*
X31402073Y-20324310D01*
X31249199Y-20213240D01*
X31080836Y-20127454D01*
X31006472Y-20103291D01*
X30959195Y-20087930D01*
X30901521Y-20048493D01*
X30874323Y-19984134D01*
X30886238Y-19915288D01*
X30933482Y-19863812D01*
X30959194Y-19852069D01*
X31080832Y-19812547D01*
X31249199Y-19726760D01*
X31402073Y-19615690D01*
X31535690Y-19482073D01*
X31646760Y-19329199D01*
X31732547Y-19160832D01*
X31790940Y-18981118D01*
X31820500Y-18794486D01*
X31820500Y-18605513D01*
X31790940Y-18418881D01*
X31732545Y-18239163D01*
X31646759Y-18070800D01*
X31535690Y-17917927D01*
X31402073Y-17784310D01*
X31249199Y-17673240D01*
X31080836Y-17587454D01*
X31006472Y-17563291D01*
X30959195Y-17547930D01*
X30901521Y-17508493D01*
X30874323Y-17444134D01*
X30886238Y-17375288D01*
X30933482Y-17323812D01*
X30959194Y-17312069D01*
X31080832Y-17272547D01*
X31249199Y-17186760D01*
X31402073Y-17075690D01*
X31535690Y-16942073D01*
X31646760Y-16789199D01*
X31703314Y-16678204D01*
X31751288Y-16627409D01*
X31813799Y-16610500D01*
X37408482Y-16610500D01*
X37475521Y-16630185D01*
X37496158Y-16646814D01*
X37527549Y-16678205D01*
X37553459Y-16704115D01*
X37668182Y-16780771D01*
X37668195Y-16780778D01*
X37795667Y-16833578D01*
X37795672Y-16833580D01*
X37795676Y-16833580D01*
X37795677Y-16833581D01*
X37931004Y-16860500D01*
X37931007Y-16860500D01*
X38068995Y-16860500D01*
X38160041Y-16842389D01*
X38204328Y-16833580D01*
X38331811Y-16780775D01*
X38331817Y-16780771D01*
X38356609Y-16764206D01*
X38423286Y-16743328D01*
X38490666Y-16761812D01*
X38537357Y-16813791D01*
X38549500Y-16867308D01*
X38549500Y-25425500D01*
X38529815Y-25492539D01*
X38477011Y-25538294D01*
X38425500Y-25549500D01*
X12059309Y-25549500D01*
X11940691Y-25549500D01*
X11826114Y-25580201D01*
X11826112Y-25580201D01*
X11826112Y-25580202D01*
X11723387Y-25639511D01*
X11723384Y-25639513D01*
X11639513Y-25723384D01*
X11639511Y-25723387D01*
X11580201Y-25826114D01*
X11549500Y-25940691D01*
X11549500Y-40020691D01*
X11549500Y-40139309D01*
X11580201Y-40253886D01*
X11639511Y-40356613D01*
X11723387Y-40440489D01*
X11826114Y-40499799D01*
X11940691Y-40530500D01*
X20536201Y-40530500D01*
X20603240Y-40550185D01*
X20646685Y-40598204D01*
X20703240Y-40709199D01*
X20814310Y-40862073D01*
X20947927Y-40995690D01*
X21100801Y-41106760D01*
X21180347Y-41147290D01*
X21269163Y-41192545D01*
X21269165Y-41192545D01*
X21269168Y-41192547D01*
X21358734Y-41221649D01*
X21390803Y-41232069D01*
X21448478Y-41271507D01*
X21475676Y-41335866D01*
X21463761Y-41404712D01*
X21416516Y-41456188D01*
X21390803Y-41467931D01*
X21269163Y-41507454D01*
X21100800Y-41593240D01*
X21013579Y-41656610D01*
X20947927Y-41704310D01*
X20947925Y-41704312D01*
X20947924Y-41704312D01*
X20814312Y-41837924D01*
X20814312Y-41837925D01*
X20814310Y-41837927D01*
X20766610Y-41903579D01*
X20703240Y-41990800D01*
X20655083Y-42085313D01*
X20649124Y-42097011D01*
X20646686Y-42101795D01*
X20598712Y-42152591D01*
X20536201Y-42169500D01*
X10574500Y-42169500D01*
X10507461Y-42149815D01*
X10461706Y-42097011D01*
X10450500Y-42045500D01*
X10450500Y-30591518D01*
X10470185Y-30524479D01*
X10486814Y-30503841D01*
X10544114Y-30446542D01*
X10620775Y-30331811D01*
X10673580Y-30204328D01*
X10700500Y-30068993D01*
X10700500Y-29931007D01*
X10700500Y-29931004D01*
X10673581Y-29795677D01*
X10673580Y-29795676D01*
X10673580Y-29795672D01*
X10673578Y-29795667D01*
X10620778Y-29668195D01*
X10620771Y-29668182D01*
X10544114Y-29553458D01*
X10544111Y-29553454D01*
X10446545Y-29455888D01*
X10446541Y-29455885D01*
X10331817Y-29379228D01*
X10331804Y-29379221D01*
X10204332Y-29326421D01*
X10204322Y-29326418D01*
X10068995Y-29299500D01*
X10068993Y-29299500D01*
X9931007Y-29299500D01*
X9931005Y-29299500D01*
X9795677Y-29326418D01*
X9795667Y-29326421D01*
X9668195Y-29379221D01*
X9668182Y-29379228D01*
X9553458Y-29455885D01*
X9553454Y-29455888D01*
X9455888Y-29553454D01*
X9455885Y-29553458D01*
X9379228Y-29668182D01*
X9379221Y-29668195D01*
X9326421Y-29795667D01*
X9326418Y-29795677D01*
X9299500Y-29931004D01*
X9299500Y-29931007D01*
X9299500Y-30068993D01*
X9299500Y-30068995D01*
X9299499Y-30068995D01*
X500500Y-30068995D01*
X500500Y-3374038D01*
X1899500Y-3374038D01*
X1899500Y-3625961D01*
X1938910Y-3874785D01*
X2016760Y-4114383D01*
X2131132Y-4338848D01*
X2279201Y-4542649D01*
X2279205Y-4542654D01*
X2457345Y-4720794D01*
X2457350Y-4720798D01*
X2569687Y-4802415D01*
X2661155Y-4868870D01*
X2775701Y-4927234D01*
X2885616Y-4983239D01*
X2885618Y-4983239D01*
X2885621Y-4983241D01*
X3125215Y-5061090D01*
X3374038Y-5100500D01*
X3374039Y-5100500D01*
X3625961Y-5100500D01*
X3625962Y-5100500D01*
X3874785Y-5061090D01*
X3893125Y-5055131D01*
X14179500Y-5055131D01*
X14179500Y-6944856D01*
X14179502Y-6944882D01*
X14182413Y-6969987D01*
X14182415Y-6969991D01*
X14227793Y-7072764D01*
X14227794Y-7072765D01*
X14307235Y-7152206D01*
X14410009Y-7197585D01*
X14435135Y-7200500D01*
X14848092Y-7200499D01*
X14915129Y-7220183D01*
X14960884Y-7272987D01*
X14970828Y-7342146D01*
X14941803Y-7405702D01*
X14904385Y-7434983D01*
X14750805Y-7513236D01*
X14648885Y-7587286D01*
X14597927Y-7624310D01*
X14597925Y-7624312D01*
X14597924Y-7624312D01*
X14464312Y-7757924D01*
X14464312Y-7757925D01*
X14464310Y-7757927D01*
X14431011Y-7803759D01*
X14353240Y-7910800D01*
X14267454Y-8079163D01*
X14209059Y-8258881D01*
X14179500Y-8445513D01*
X14179500Y-8634486D01*
X14209059Y-8821118D01*
X14267454Y-9000836D01*
X14353104Y-9168933D01*
X14353240Y-9169199D01*
X14464310Y-9322073D01*
X14597927Y-9455690D01*
X14750801Y-9566760D01*
X14830347Y-9607290D01*
X14919163Y-9652545D01*
X14919165Y-9652545D01*
X14919168Y-9652547D01*
X15008734Y-9681649D01*
X15040803Y-9692069D01*
X15098478Y-9731507D01*
X15125676Y-9795866D01*
X15113761Y-9864712D01*
X15066516Y-9916188D01*
X15040803Y-9927931D01*
X14919163Y-9967454D01*
X14750800Y-10053240D01*
X14663579Y-10116610D01*
X14597927Y-10164310D01*
X14597925Y-10164312D01*
X14597924Y-10164312D01*
X14464312Y-10297924D01*
X14464312Y-10297925D01*
X14464310Y-10297927D01*
X14416610Y-10363579D01*
X14353240Y-10450800D01*
X14267454Y-10619163D01*
X14209059Y-10798881D01*
X14179500Y-10985513D01*
X14179500Y-11174486D01*
X14209059Y-11361118D01*
X14267454Y-11540836D01*
X14353240Y-11709199D01*
X14464310Y-11862073D01*
X14597927Y-11995690D01*
X14750801Y-12106760D01*
X14830347Y-12147290D01*
X14919163Y-12192545D01*
X14919165Y-12192545D01*
X14919168Y-12192547D01*
X15008734Y-12221649D01*
X15040803Y-12232069D01*
X15098478Y-12271507D01*
X15125676Y-12335866D01*
X15113761Y-12404712D01*
X15066516Y-12456188D01*
X15040803Y-12467931D01*
X14919163Y-12507454D01*
X14750800Y-12593240D01*
X14663579Y-12656610D01*
X14597927Y-12704310D01*
X14597925Y-12704312D01*
X14597924Y-12704312D01*
X14464312Y-12837924D01*
X14464312Y-12837925D01*
X14464310Y-12837927D01*
X14416610Y-12903579D01*
X14353240Y-12990800D01*
X14267454Y-13159163D01*
X14209059Y-13338881D01*
X14179500Y-13525513D01*
X14179500Y-13714486D01*
X14209059Y-13901118D01*
X14267454Y-14080836D01*
X14353240Y-14249199D01*
X14464310Y-14402073D01*
X14597927Y-14535690D01*
X14750801Y-14646760D01*
X14830347Y-14687290D01*
X14919163Y-14732545D01*
X14919165Y-14732545D01*
X14919168Y-14732547D01*
X15008734Y-14761649D01*
X15040803Y-14772069D01*
X15098478Y-14811507D01*
X15125676Y-14875866D01*
X15113761Y-14944712D01*
X15066516Y-14996188D01*
X15040803Y-15007931D01*
X14919163Y-15047454D01*
X14750800Y-15133240D01*
X14663579Y-15196610D01*
X14597927Y-15244310D01*
X14597925Y-15244312D01*
X14597924Y-15244312D01*
X14464312Y-15377924D01*
X14464312Y-15377925D01*
X14464310Y-15377927D01*
X14416610Y-15443579D01*
X14353240Y-15530800D01*
X14267454Y-15699163D01*
X14209059Y-15878881D01*
X14179500Y-16065513D01*
X14179500Y-16254486D01*
X14209059Y-16441118D01*
X14267454Y-16620836D01*
X14339286Y-16761812D01*
X14353240Y-16789199D01*
X14464310Y-16942073D01*
X14597927Y-17075690D01*
X14750801Y-17186760D01*
X14830347Y-17227290D01*
X14919163Y-17272545D01*
X14919165Y-17272545D01*
X14919168Y-17272547D01*
X15008734Y-17301649D01*
X15040803Y-17312069D01*
X15098478Y-17351507D01*
X15125676Y-17415866D01*
X15113761Y-17484712D01*
X15066516Y-17536188D01*
X15040803Y-17547931D01*
X14919163Y-17587454D01*
X14750800Y-17673240D01*
X14663579Y-17736610D01*
X14597927Y-17784310D01*
X14597925Y-17784312D01*
X14597924Y-17784312D01*
X14464312Y-17917924D01*
X14464312Y-17917925D01*
X14464310Y-17917927D01*
X14416610Y-17983579D01*
X14353240Y-18070800D01*
X14267454Y-18239163D01*
X14209059Y-18418881D01*
X14179500Y-18605513D01*
X14179500Y-18794486D01*
X14209059Y-18981118D01*
X14267454Y-19160836D01*
X14353240Y-19329199D01*
X14464310Y-19482073D01*
X14597927Y-19615690D01*
X14750801Y-19726760D01*
X14830347Y-19767290D01*
X14919163Y-19812545D01*
X14919165Y-19812545D01*
X14919168Y-19812547D01*
X15008734Y-19841649D01*
X15040803Y-19852069D01*
X15098478Y-19891507D01*
X15125676Y-19955866D01*
X15113761Y-20024712D01*
X15066516Y-20076188D01*
X15040803Y-20087931D01*
X14919163Y-20127454D01*
X14750800Y-20213240D01*
X14663579Y-20276610D01*
X14597927Y-20324310D01*
X14597925Y-20324312D01*
X14597924Y-20324312D01*
X14464312Y-20457924D01*
X14464312Y-20457925D01*
X14464310Y-20457927D01*
X14416610Y-20523579D01*
X14353240Y-20610800D01*
X14267454Y-20779163D01*
X14209059Y-20958881D01*
X14179500Y-21145513D01*
X14179500Y-21334486D01*
X14209059Y-21521118D01*
X14267454Y-21700836D01*
X14353240Y-21869199D01*
X14464310Y-22022073D01*
X14597927Y-22155690D01*
X14750801Y-22266760D01*
X14830347Y-22307290D01*
X14919163Y-22352545D01*
X14919165Y-22352545D01*
X14919168Y-22352547D01*
X15015497Y-22383846D01*
X15098881Y-22410940D01*
X15285514Y-22440500D01*
X15285519Y-22440500D01*
X15474486Y-22440500D01*
X15661118Y-22410940D01*
X15840832Y-22352547D01*
X16009199Y-22266760D01*
X16162073Y-22155690D01*
X16295690Y-22022073D01*
X16406760Y-21869199D01*
X16492547Y-21700832D01*
X16550940Y-21521118D01*
X16580500Y-21334486D01*
X16580500Y-21145513D01*
X16550940Y-20958881D01*
X16492545Y-20779163D01*
X16406759Y-20610800D01*
X16295690Y-20457927D01*
X16162073Y-20324310D01*
X16009199Y-20213240D01*
X15840836Y-20127454D01*
X15766472Y-20103291D01*
X15719195Y-20087930D01*
X15661521Y-20048493D01*
X15634323Y-19984134D01*
X15646238Y-19915288D01*
X15693482Y-19863812D01*
X15719194Y-19852069D01*
X15840832Y-19812547D01*
X16009199Y-19726760D01*
X16162073Y-19615690D01*
X16295690Y-19482073D01*
X16406760Y-19329199D01*
X16492547Y-19160832D01*
X16550940Y-18981118D01*
X16580500Y-18794486D01*
X16580500Y-18605513D01*
X16550940Y-18418881D01*
X16492545Y-18239163D01*
X16406759Y-18070800D01*
X16295690Y-17917927D01*
X16162073Y-17784310D01*
X16009199Y-17673240D01*
X15840836Y-17587454D01*
X15766472Y-17563291D01*
X15719195Y-17547930D01*
X15661521Y-17508493D01*
X15634323Y-17444134D01*
X15646238Y-17375288D01*
X15693482Y-17323812D01*
X15719194Y-17312069D01*
X15840832Y-17272547D01*
X16009199Y-17186760D01*
X16162073Y-17075690D01*
X16295690Y-16942073D01*
X16406760Y-16789199D01*
X16492547Y-16620832D01*
X16550940Y-16441118D01*
X16580500Y-16254486D01*
X16580500Y-16065513D01*
X16550940Y-15878881D01*
X16492545Y-15699163D01*
X16419495Y-15555795D01*
X16406760Y-15530801D01*
X16295690Y-15377927D01*
X16162073Y-15244310D01*
X16009199Y-15133240D01*
X15840836Y-15047454D01*
X15766472Y-15023291D01*
X15719195Y-15007930D01*
X15661521Y-14968493D01*
X15634323Y-14904134D01*
X15646238Y-14835288D01*
X15693482Y-14783812D01*
X15719194Y-14772069D01*
X15840832Y-14732547D01*
X16009199Y-14646760D01*
X16162073Y-14535690D01*
X16295690Y-14402073D01*
X16406760Y-14249199D01*
X16492547Y-14080832D01*
X16550940Y-13901118D01*
X16580500Y-13714486D01*
X16580500Y-13525513D01*
X16550940Y-13338881D01*
X16505880Y-13200202D01*
X16492547Y-13159168D01*
X16492545Y-13159165D01*
X16492545Y-13159163D01*
X16406759Y-12990800D01*
X16295690Y-12837927D01*
X16162073Y-12704310D01*
X16009199Y-12593240D01*
X15840836Y-12507454D01*
X15766472Y-12483291D01*
X15719195Y-12467930D01*
X15661521Y-12428493D01*
X15634323Y-12364134D01*
X15646238Y-12295288D01*
X15693482Y-12243812D01*
X15719194Y-12232069D01*
X15840832Y-12192547D01*
X16009199Y-12106760D01*
X16162073Y-11995690D01*
X16295690Y-11862073D01*
X16406760Y-11709199D01*
X16492547Y-11540832D01*
X16550940Y-11361118D01*
X16580500Y-11174486D01*
X16580500Y-10985513D01*
X16550940Y-10798881D01*
X16492545Y-10619163D01*
X16406759Y-10450800D01*
X16295690Y-10297927D01*
X16162073Y-10164310D01*
X16009199Y-10053240D01*
X15840836Y-9967454D01*
X15766472Y-9943291D01*
X15719195Y-9927930D01*
X15661521Y-9888493D01*
X15634323Y-9824134D01*
X15646238Y-9755288D01*
X15693482Y-9703812D01*
X15719194Y-9692069D01*
X15840832Y-9652547D01*
X16009199Y-9566760D01*
X16162073Y-9455690D01*
X16295690Y-9322073D01*
X16406760Y-9169199D01*
X16492547Y-9000832D01*
X16550940Y-8821118D01*
X16561866Y-8752132D01*
X16580500Y-8634486D01*
X16580500Y-8445513D01*
X16550940Y-8258881D01*
X16492545Y-8079163D01*
X16406894Y-7911064D01*
X16406760Y-7910801D01*
X16295690Y-7757927D01*
X16162073Y-7624310D01*
X16009199Y-7513240D01*
X16009191Y-7513236D01*
X15855613Y-7434984D01*
X15804817Y-7387009D01*
X15788022Y-7319188D01*
X15810559Y-7253053D01*
X15865275Y-7209602D01*
X15911906Y-7200499D01*
X16324864Y-7200499D01*
X16324879Y-7200497D01*
X16324882Y-7200497D01*
X16349987Y-7197586D01*
X16349988Y-7197585D01*
X16349991Y-7197585D01*
X16452765Y-7152206D01*
X16532206Y-7072765D01*
X16577585Y-6969991D01*
X16580500Y-6944865D01*
X16580499Y-5055136D01*
X16580499Y-5055135D01*
X16580499Y-5055130D01*
X16577586Y-5030012D01*
X16577585Y-5030010D01*
X16577585Y-5030009D01*
X16532206Y-4927235D01*
X16452765Y-4847794D01*
X16452763Y-4847793D01*
X16349992Y-4802415D01*
X16324865Y-4799500D01*
X14435143Y-4799500D01*
X14435117Y-4799502D01*
X14410012Y-4802413D01*
X14410008Y-4802415D01*
X14307235Y-4847793D01*
X14227794Y-4927234D01*
X14182415Y-5030006D01*
X14182415Y-5030008D01*
X14179500Y-5055131D01*
X3893125Y-5055131D01*
X4114379Y-4983241D01*
X4338845Y-4868870D01*
X4542656Y-4720793D01*
X4720793Y-4542656D01*
X4868870Y-4338845D01*
X4983241Y-4114379D01*
X5061090Y-3874785D01*
X5100500Y-3625962D01*
X5100500Y-3374038D01*
X40899500Y-3374038D01*
X40899500Y-3625961D01*
X40938910Y-3874785D01*
X41016760Y-4114383D01*
X41131132Y-4338848D01*
X41279201Y-4542649D01*
X41279205Y-4542654D01*
X41457345Y-4720794D01*
X41457350Y-4720798D01*
X41569687Y-4802415D01*
X41661155Y-4868870D01*
X41775701Y-4927234D01*
X41885616Y-4983239D01*
X41885618Y-4983239D01*
X41885621Y-4983241D01*
X42125215Y-5061090D01*
X42374038Y-5100500D01*
X42374039Y-5100500D01*
X42625961Y-5100500D01*
X42625962Y-5100500D01*
X42874785Y-5061090D01*
X43114379Y-4983241D01*
X43338845Y-4868870D01*
X43542656Y-4720793D01*
X43720793Y-4542656D01*
X43868870Y-4338845D01*
X43983241Y-4114379D01*
X44061090Y-3874785D01*
X44100500Y-3625962D01*
X44100500Y-3374038D01*
X44061090Y-3125215D01*
X43983241Y-2885621D01*
X43983239Y-2885618D01*
X43983239Y-2885616D01*
X43941747Y-2804184D01*
X43868870Y-2661155D01*
X43849952Y-2635117D01*
X43720798Y-2457350D01*
X43720794Y-2457345D01*
X43542654Y-2279205D01*
X43542649Y-2279201D01*
X43338848Y-2131132D01*
X43338847Y-2131131D01*
X43338845Y-2131130D01*
X43268747Y-2095413D01*
X43114383Y-2016760D01*
X42874785Y-1938910D01*
X42625962Y-1899500D01*
X42374038Y-1899500D01*
X42249626Y-1919205D01*
X42125214Y-1938910D01*
X41885616Y-2016760D01*
X41661151Y-2131132D01*
X41457350Y-2279201D01*
X41457345Y-2279205D01*
X41279205Y-2457345D01*
X41279201Y-2457350D01*
X41131132Y-2661151D01*
X41016760Y-2885616D01*
X40938910Y-3125214D01*
X40899500Y-3374038D01*
X5100500Y-3374038D01*
X5061090Y-3125215D01*
X4983241Y-2885621D01*
X4983239Y-2885618D01*
X4983239Y-2885616D01*
X4941747Y-2804184D01*
X4868870Y-2661155D01*
X4849952Y-2635117D01*
X4720798Y-2457350D01*
X4720794Y-2457345D01*
X4542654Y-2279205D01*
X4542649Y-2279201D01*
X4338848Y-2131132D01*
X4338847Y-2131131D01*
X4338845Y-2131130D01*
X4268747Y-2095413D01*
X4114383Y-2016760D01*
X3874785Y-1938910D01*
X3625962Y-1899500D01*
X3374038Y-1899500D01*
X3249626Y-1919205D01*
X3125214Y-1938910D01*
X2885616Y-2016760D01*
X2661151Y-2131132D01*
X2457350Y-2279201D01*
X2457345Y-2279205D01*
X2279205Y-2457345D01*
X2279201Y-2457350D01*
X2131132Y-2661151D01*
X2016760Y-2885616D01*
X1938910Y-3125214D01*
X1899500Y-3374038D01*
X500500Y-3374038D01*
X500500Y-624500D01*
X520185Y-557461D01*
X572989Y-511706D01*
X624500Y-500500D01*
X45375500Y-500500D01*
X45442539Y-520185D01*
G37*
%TD.AperFunction*%
%TD*%
M02*
