%TF.GenerationSoftware,KiCad,Pcbnew,10.0.5*%
%TF.CreationDate,2026-08-31T00:34:45+01:00*%
%TF.ProjectId,fireangel_xiao_carrier,66697265-616e-4676-956c-5f7869616f5f,rev?*%
%TF.SameCoordinates,Original*%
%TF.FileFunction,Legend,Top*%
%TF.FilePolarity,Positive*%
%FSLAX46Y46*%
G04 Gerber Fmt 4.6, Leading zero omitted, Abs format (unit mm)*
G04 Created by KiCad (PCBNEW 10.0.5) date 2026-08-31 00:34:45*
%MOMM*%
%LPD*%
G01*
G04 APERTURE LIST*
%ADD10C,0.160000*%
%ADD11C,0.200000*%
%ADD12C,0.120000*%
%ADD13C,0.150000*%
%ADD14C,0.140000*%
G04 APERTURE END LIST*
D10*
X28062405Y-60974727D02*
X27795739Y-60974727D01*
X27795739Y-61393775D02*
X27795739Y-60593775D01*
X27795739Y-60593775D02*
X28176691Y-60593775D01*
X28481453Y-61393775D02*
X28481453Y-60860441D01*
X28481453Y-60593775D02*
X28443357Y-60631870D01*
X28443357Y-60631870D02*
X28481453Y-60669965D01*
X28481453Y-60669965D02*
X28519548Y-60631870D01*
X28519548Y-60631870D02*
X28481453Y-60593775D01*
X28481453Y-60593775D02*
X28481453Y-60669965D01*
X28862405Y-61393775D02*
X28862405Y-60860441D01*
X28862405Y-61012822D02*
X28900500Y-60936632D01*
X28900500Y-60936632D02*
X28938595Y-60898537D01*
X28938595Y-60898537D02*
X29014786Y-60860441D01*
X29014786Y-60860441D02*
X29090976Y-60860441D01*
X29662405Y-61355680D02*
X29586214Y-61393775D01*
X29586214Y-61393775D02*
X29433833Y-61393775D01*
X29433833Y-61393775D02*
X29357643Y-61355680D01*
X29357643Y-61355680D02*
X29319547Y-61279489D01*
X29319547Y-61279489D02*
X29319547Y-60974727D01*
X29319547Y-60974727D02*
X29357643Y-60898537D01*
X29357643Y-60898537D02*
X29433833Y-60860441D01*
X29433833Y-60860441D02*
X29586214Y-60860441D01*
X29586214Y-60860441D02*
X29662405Y-60898537D01*
X29662405Y-60898537D02*
X29700500Y-60974727D01*
X29700500Y-60974727D02*
X29700500Y-61050918D01*
X29700500Y-61050918D02*
X29319547Y-61127108D01*
X30005261Y-61165203D02*
X30386214Y-61165203D01*
X29929071Y-61393775D02*
X30195738Y-60593775D01*
X30195738Y-60593775D02*
X30462404Y-61393775D01*
X30729071Y-60860441D02*
X30729071Y-61393775D01*
X30729071Y-60936632D02*
X30767166Y-60898537D01*
X30767166Y-60898537D02*
X30843356Y-60860441D01*
X30843356Y-60860441D02*
X30957642Y-60860441D01*
X30957642Y-60860441D02*
X31033833Y-60898537D01*
X31033833Y-60898537D02*
X31071928Y-60974727D01*
X31071928Y-60974727D02*
X31071928Y-61393775D01*
X31795738Y-60860441D02*
X31795738Y-61508060D01*
X31795738Y-61508060D02*
X31757643Y-61584251D01*
X31757643Y-61584251D02*
X31719547Y-61622346D01*
X31719547Y-61622346D02*
X31643357Y-61660441D01*
X31643357Y-61660441D02*
X31529071Y-61660441D01*
X31529071Y-61660441D02*
X31452881Y-61622346D01*
X31795738Y-61355680D02*
X31719547Y-61393775D01*
X31719547Y-61393775D02*
X31567166Y-61393775D01*
X31567166Y-61393775D02*
X31490976Y-61355680D01*
X31490976Y-61355680D02*
X31452881Y-61317584D01*
X31452881Y-61317584D02*
X31414785Y-61241394D01*
X31414785Y-61241394D02*
X31414785Y-61012822D01*
X31414785Y-61012822D02*
X31452881Y-60936632D01*
X31452881Y-60936632D02*
X31490976Y-60898537D01*
X31490976Y-60898537D02*
X31567166Y-60860441D01*
X31567166Y-60860441D02*
X31719547Y-60860441D01*
X31719547Y-60860441D02*
X31795738Y-60898537D01*
X32481453Y-61355680D02*
X32405262Y-61393775D01*
X32405262Y-61393775D02*
X32252881Y-61393775D01*
X32252881Y-61393775D02*
X32176691Y-61355680D01*
X32176691Y-61355680D02*
X32138595Y-61279489D01*
X32138595Y-61279489D02*
X32138595Y-60974727D01*
X32138595Y-60974727D02*
X32176691Y-60898537D01*
X32176691Y-60898537D02*
X32252881Y-60860441D01*
X32252881Y-60860441D02*
X32405262Y-60860441D01*
X32405262Y-60860441D02*
X32481453Y-60898537D01*
X32481453Y-60898537D02*
X32519548Y-60974727D01*
X32519548Y-60974727D02*
X32519548Y-61050918D01*
X32519548Y-61050918D02*
X32138595Y-61127108D01*
X32976690Y-61393775D02*
X32900500Y-61355680D01*
X32900500Y-61355680D02*
X32862405Y-61279489D01*
X32862405Y-61279489D02*
X32862405Y-60593775D01*
X33890977Y-61393775D02*
X33890977Y-60593775D01*
X33890977Y-60593775D02*
X34195739Y-60593775D01*
X34195739Y-60593775D02*
X34271929Y-60631870D01*
X34271929Y-60631870D02*
X34310024Y-60669965D01*
X34310024Y-60669965D02*
X34348120Y-60746156D01*
X34348120Y-60746156D02*
X34348120Y-60860441D01*
X34348120Y-60860441D02*
X34310024Y-60936632D01*
X34310024Y-60936632D02*
X34271929Y-60974727D01*
X34271929Y-60974727D02*
X34195739Y-61012822D01*
X34195739Y-61012822D02*
X33890977Y-61012822D01*
X34690977Y-61393775D02*
X34690977Y-60860441D01*
X34690977Y-61012822D02*
X34729072Y-60936632D01*
X34729072Y-60936632D02*
X34767167Y-60898537D01*
X34767167Y-60898537D02*
X34843358Y-60860441D01*
X34843358Y-60860441D02*
X34919548Y-60860441D01*
X35300500Y-61393775D02*
X35224310Y-61355680D01*
X35224310Y-61355680D02*
X35186215Y-61317584D01*
X35186215Y-61317584D02*
X35148119Y-61241394D01*
X35148119Y-61241394D02*
X35148119Y-61012822D01*
X35148119Y-61012822D02*
X35186215Y-60936632D01*
X35186215Y-60936632D02*
X35224310Y-60898537D01*
X35224310Y-60898537D02*
X35300500Y-60860441D01*
X35300500Y-60860441D02*
X35414786Y-60860441D01*
X35414786Y-60860441D02*
X35490977Y-60898537D01*
X35490977Y-60898537D02*
X35529072Y-60936632D01*
X35529072Y-60936632D02*
X35567167Y-61012822D01*
X35567167Y-61012822D02*
X35567167Y-61241394D01*
X35567167Y-61241394D02*
X35529072Y-61317584D01*
X35529072Y-61317584D02*
X35490977Y-61355680D01*
X35490977Y-61355680D02*
X35414786Y-61393775D01*
X35414786Y-61393775D02*
X35300500Y-61393775D01*
X36976692Y-61317584D02*
X36938596Y-61355680D01*
X36938596Y-61355680D02*
X36824311Y-61393775D01*
X36824311Y-61393775D02*
X36748120Y-61393775D01*
X36748120Y-61393775D02*
X36633834Y-61355680D01*
X36633834Y-61355680D02*
X36557644Y-61279489D01*
X36557644Y-61279489D02*
X36519549Y-61203299D01*
X36519549Y-61203299D02*
X36481453Y-61050918D01*
X36481453Y-61050918D02*
X36481453Y-60936632D01*
X36481453Y-60936632D02*
X36519549Y-60784251D01*
X36519549Y-60784251D02*
X36557644Y-60708060D01*
X36557644Y-60708060D02*
X36633834Y-60631870D01*
X36633834Y-60631870D02*
X36748120Y-60593775D01*
X36748120Y-60593775D02*
X36824311Y-60593775D01*
X36824311Y-60593775D02*
X36938596Y-60631870D01*
X36938596Y-60631870D02*
X36976692Y-60669965D01*
X37433834Y-61393775D02*
X37357644Y-61355680D01*
X37357644Y-61355680D02*
X37319549Y-61317584D01*
X37319549Y-61317584D02*
X37281453Y-61241394D01*
X37281453Y-61241394D02*
X37281453Y-61012822D01*
X37281453Y-61012822D02*
X37319549Y-60936632D01*
X37319549Y-60936632D02*
X37357644Y-60898537D01*
X37357644Y-60898537D02*
X37433834Y-60860441D01*
X37433834Y-60860441D02*
X37548120Y-60860441D01*
X37548120Y-60860441D02*
X37624311Y-60898537D01*
X37624311Y-60898537D02*
X37662406Y-60936632D01*
X37662406Y-60936632D02*
X37700501Y-61012822D01*
X37700501Y-61012822D02*
X37700501Y-61241394D01*
X37700501Y-61241394D02*
X37662406Y-61317584D01*
X37662406Y-61317584D02*
X37624311Y-61355680D01*
X37624311Y-61355680D02*
X37548120Y-61393775D01*
X37548120Y-61393775D02*
X37433834Y-61393775D01*
X38043359Y-60860441D02*
X38043359Y-61393775D01*
X38043359Y-60936632D02*
X38081454Y-60898537D01*
X38081454Y-60898537D02*
X38157644Y-60860441D01*
X38157644Y-60860441D02*
X38271930Y-60860441D01*
X38271930Y-60860441D02*
X38348121Y-60898537D01*
X38348121Y-60898537D02*
X38386216Y-60974727D01*
X38386216Y-60974727D02*
X38386216Y-61393775D01*
X38767169Y-60860441D02*
X38767169Y-61393775D01*
X38767169Y-60936632D02*
X38805264Y-60898537D01*
X38805264Y-60898537D02*
X38881454Y-60860441D01*
X38881454Y-60860441D02*
X38995740Y-60860441D01*
X38995740Y-60860441D02*
X39071931Y-60898537D01*
X39071931Y-60898537D02*
X39110026Y-60974727D01*
X39110026Y-60974727D02*
X39110026Y-61393775D01*
X39795741Y-61355680D02*
X39719550Y-61393775D01*
X39719550Y-61393775D02*
X39567169Y-61393775D01*
X39567169Y-61393775D02*
X39490979Y-61355680D01*
X39490979Y-61355680D02*
X39452883Y-61279489D01*
X39452883Y-61279489D02*
X39452883Y-60974727D01*
X39452883Y-60974727D02*
X39490979Y-60898537D01*
X39490979Y-60898537D02*
X39567169Y-60860441D01*
X39567169Y-60860441D02*
X39719550Y-60860441D01*
X39719550Y-60860441D02*
X39795741Y-60898537D01*
X39795741Y-60898537D02*
X39833836Y-60974727D01*
X39833836Y-60974727D02*
X39833836Y-61050918D01*
X39833836Y-61050918D02*
X39452883Y-61127108D01*
X40519550Y-61355680D02*
X40443359Y-61393775D01*
X40443359Y-61393775D02*
X40290978Y-61393775D01*
X40290978Y-61393775D02*
X40214788Y-61355680D01*
X40214788Y-61355680D02*
X40176693Y-61317584D01*
X40176693Y-61317584D02*
X40138597Y-61241394D01*
X40138597Y-61241394D02*
X40138597Y-61012822D01*
X40138597Y-61012822D02*
X40176693Y-60936632D01*
X40176693Y-60936632D02*
X40214788Y-60898537D01*
X40214788Y-60898537D02*
X40290978Y-60860441D01*
X40290978Y-60860441D02*
X40443359Y-60860441D01*
X40443359Y-60860441D02*
X40519550Y-60898537D01*
X40748121Y-60860441D02*
X41052883Y-60860441D01*
X40862407Y-60593775D02*
X40862407Y-61279489D01*
X40862407Y-61279489D02*
X40900502Y-61355680D01*
X40900502Y-61355680D02*
X40976692Y-61393775D01*
X40976692Y-61393775D02*
X41052883Y-61393775D01*
X41624312Y-61355680D02*
X41548121Y-61393775D01*
X41548121Y-61393775D02*
X41395740Y-61393775D01*
X41395740Y-61393775D02*
X41319550Y-61355680D01*
X41319550Y-61355680D02*
X41281454Y-61279489D01*
X41281454Y-61279489D02*
X41281454Y-60974727D01*
X41281454Y-60974727D02*
X41319550Y-60898537D01*
X41319550Y-60898537D02*
X41395740Y-60860441D01*
X41395740Y-60860441D02*
X41548121Y-60860441D01*
X41548121Y-60860441D02*
X41624312Y-60898537D01*
X41624312Y-60898537D02*
X41662407Y-60974727D01*
X41662407Y-60974727D02*
X41662407Y-61050918D01*
X41662407Y-61050918D02*
X41281454Y-61127108D01*
X42348121Y-61393775D02*
X42348121Y-60593775D01*
X42348121Y-61355680D02*
X42271930Y-61393775D01*
X42271930Y-61393775D02*
X42119549Y-61393775D01*
X42119549Y-61393775D02*
X42043359Y-61355680D01*
X42043359Y-61355680D02*
X42005264Y-61317584D01*
X42005264Y-61317584D02*
X41967168Y-61241394D01*
X41967168Y-61241394D02*
X41967168Y-61012822D01*
X41967168Y-61012822D02*
X42005264Y-60936632D01*
X42005264Y-60936632D02*
X42043359Y-60898537D01*
X42043359Y-60898537D02*
X42119549Y-60860441D01*
X42119549Y-60860441D02*
X42271930Y-60860441D01*
X42271930Y-60860441D02*
X42348121Y-60898537D01*
X27795739Y-62974727D02*
X28062405Y-62974727D01*
X28176691Y-63393775D02*
X27795739Y-63393775D01*
X27795739Y-63393775D02*
X27795739Y-62593775D01*
X27795739Y-62593775D02*
X28176691Y-62593775D01*
X28481453Y-63355680D02*
X28595739Y-63393775D01*
X28595739Y-63393775D02*
X28786215Y-63393775D01*
X28786215Y-63393775D02*
X28862406Y-63355680D01*
X28862406Y-63355680D02*
X28900501Y-63317584D01*
X28900501Y-63317584D02*
X28938596Y-63241394D01*
X28938596Y-63241394D02*
X28938596Y-63165203D01*
X28938596Y-63165203D02*
X28900501Y-63089013D01*
X28900501Y-63089013D02*
X28862406Y-63050918D01*
X28862406Y-63050918D02*
X28786215Y-63012822D01*
X28786215Y-63012822D02*
X28633834Y-62974727D01*
X28633834Y-62974727D02*
X28557644Y-62936632D01*
X28557644Y-62936632D02*
X28519549Y-62898537D01*
X28519549Y-62898537D02*
X28481453Y-62822346D01*
X28481453Y-62822346D02*
X28481453Y-62746156D01*
X28481453Y-62746156D02*
X28519549Y-62669965D01*
X28519549Y-62669965D02*
X28557644Y-62631870D01*
X28557644Y-62631870D02*
X28633834Y-62593775D01*
X28633834Y-62593775D02*
X28824311Y-62593775D01*
X28824311Y-62593775D02*
X28938596Y-62631870D01*
X29281454Y-63393775D02*
X29281454Y-62593775D01*
X29281454Y-62593775D02*
X29586216Y-62593775D01*
X29586216Y-62593775D02*
X29662406Y-62631870D01*
X29662406Y-62631870D02*
X29700501Y-62669965D01*
X29700501Y-62669965D02*
X29738597Y-62746156D01*
X29738597Y-62746156D02*
X29738597Y-62860441D01*
X29738597Y-62860441D02*
X29700501Y-62936632D01*
X29700501Y-62936632D02*
X29662406Y-62974727D01*
X29662406Y-62974727D02*
X29586216Y-63012822D01*
X29586216Y-63012822D02*
X29281454Y-63012822D01*
X30081454Y-63393775D02*
X30081454Y-62593775D01*
X30081454Y-62974727D02*
X30538597Y-62974727D01*
X30538597Y-63393775D02*
X30538597Y-62593775D01*
X31033834Y-63393775D02*
X30957644Y-63355680D01*
X30957644Y-63355680D02*
X30919549Y-63317584D01*
X30919549Y-63317584D02*
X30881453Y-63241394D01*
X30881453Y-63241394D02*
X30881453Y-63012822D01*
X30881453Y-63012822D02*
X30919549Y-62936632D01*
X30919549Y-62936632D02*
X30957644Y-62898537D01*
X30957644Y-62898537D02*
X31033834Y-62860441D01*
X31033834Y-62860441D02*
X31148120Y-62860441D01*
X31148120Y-62860441D02*
X31224311Y-62898537D01*
X31224311Y-62898537D02*
X31262406Y-62936632D01*
X31262406Y-62936632D02*
X31300501Y-63012822D01*
X31300501Y-63012822D02*
X31300501Y-63241394D01*
X31300501Y-63241394D02*
X31262406Y-63317584D01*
X31262406Y-63317584D02*
X31224311Y-63355680D01*
X31224311Y-63355680D02*
X31148120Y-63393775D01*
X31148120Y-63393775D02*
X31033834Y-63393775D01*
X31643359Y-63393775D02*
X31643359Y-62860441D01*
X31643359Y-62936632D02*
X31681454Y-62898537D01*
X31681454Y-62898537D02*
X31757644Y-62860441D01*
X31757644Y-62860441D02*
X31871930Y-62860441D01*
X31871930Y-62860441D02*
X31948121Y-62898537D01*
X31948121Y-62898537D02*
X31986216Y-62974727D01*
X31986216Y-62974727D02*
X31986216Y-63393775D01*
X31986216Y-62974727D02*
X32024311Y-62898537D01*
X32024311Y-62898537D02*
X32100502Y-62860441D01*
X32100502Y-62860441D02*
X32214787Y-62860441D01*
X32214787Y-62860441D02*
X32290978Y-62898537D01*
X32290978Y-62898537D02*
X32329073Y-62974727D01*
X32329073Y-62974727D02*
X32329073Y-63393775D01*
X33014788Y-63355680D02*
X32938597Y-63393775D01*
X32938597Y-63393775D02*
X32786216Y-63393775D01*
X32786216Y-63393775D02*
X32710026Y-63355680D01*
X32710026Y-63355680D02*
X32671930Y-63279489D01*
X32671930Y-63279489D02*
X32671930Y-62974727D01*
X32671930Y-62974727D02*
X32710026Y-62898537D01*
X32710026Y-62898537D02*
X32786216Y-62860441D01*
X32786216Y-62860441D02*
X32938597Y-62860441D01*
X32938597Y-62860441D02*
X33014788Y-62898537D01*
X33014788Y-62898537D02*
X33052883Y-62974727D01*
X33052883Y-62974727D02*
X33052883Y-63050918D01*
X33052883Y-63050918D02*
X32671930Y-63127108D01*
X34348121Y-63393775D02*
X34348121Y-62593775D01*
X34348121Y-63355680D02*
X34271930Y-63393775D01*
X34271930Y-63393775D02*
X34119549Y-63393775D01*
X34119549Y-63393775D02*
X34043359Y-63355680D01*
X34043359Y-63355680D02*
X34005264Y-63317584D01*
X34005264Y-63317584D02*
X33967168Y-63241394D01*
X33967168Y-63241394D02*
X33967168Y-63012822D01*
X33967168Y-63012822D02*
X34005264Y-62936632D01*
X34005264Y-62936632D02*
X34043359Y-62898537D01*
X34043359Y-62898537D02*
X34119549Y-62860441D01*
X34119549Y-62860441D02*
X34271930Y-62860441D01*
X34271930Y-62860441D02*
X34348121Y-62898537D01*
X35033836Y-63355680D02*
X34957645Y-63393775D01*
X34957645Y-63393775D02*
X34805264Y-63393775D01*
X34805264Y-63393775D02*
X34729074Y-63355680D01*
X34729074Y-63355680D02*
X34690978Y-63279489D01*
X34690978Y-63279489D02*
X34690978Y-62974727D01*
X34690978Y-62974727D02*
X34729074Y-62898537D01*
X34729074Y-62898537D02*
X34805264Y-62860441D01*
X34805264Y-62860441D02*
X34957645Y-62860441D01*
X34957645Y-62860441D02*
X35033836Y-62898537D01*
X35033836Y-62898537D02*
X35071931Y-62974727D01*
X35071931Y-62974727D02*
X35071931Y-63050918D01*
X35071931Y-63050918D02*
X34690978Y-63127108D01*
X35338597Y-62860441D02*
X35529073Y-63393775D01*
X35529073Y-63393775D02*
X35719550Y-62860441D01*
X36024312Y-63393775D02*
X36024312Y-62860441D01*
X36024312Y-62593775D02*
X35986216Y-62631870D01*
X35986216Y-62631870D02*
X36024312Y-62669965D01*
X36024312Y-62669965D02*
X36062407Y-62631870D01*
X36062407Y-62631870D02*
X36024312Y-62593775D01*
X36024312Y-62593775D02*
X36024312Y-62669965D01*
X36748121Y-63355680D02*
X36671930Y-63393775D01*
X36671930Y-63393775D02*
X36519549Y-63393775D01*
X36519549Y-63393775D02*
X36443359Y-63355680D01*
X36443359Y-63355680D02*
X36405264Y-63317584D01*
X36405264Y-63317584D02*
X36367168Y-63241394D01*
X36367168Y-63241394D02*
X36367168Y-63012822D01*
X36367168Y-63012822D02*
X36405264Y-62936632D01*
X36405264Y-62936632D02*
X36443359Y-62898537D01*
X36443359Y-62898537D02*
X36519549Y-62860441D01*
X36519549Y-62860441D02*
X36671930Y-62860441D01*
X36671930Y-62860441D02*
X36748121Y-62898537D01*
X37395740Y-63355680D02*
X37319549Y-63393775D01*
X37319549Y-63393775D02*
X37167168Y-63393775D01*
X37167168Y-63393775D02*
X37090978Y-63355680D01*
X37090978Y-63355680D02*
X37052882Y-63279489D01*
X37052882Y-63279489D02*
X37052882Y-62974727D01*
X37052882Y-62974727D02*
X37090978Y-62898537D01*
X37090978Y-62898537D02*
X37167168Y-62860441D01*
X37167168Y-62860441D02*
X37319549Y-62860441D01*
X37319549Y-62860441D02*
X37395740Y-62898537D01*
X37395740Y-62898537D02*
X37433835Y-62974727D01*
X37433835Y-62974727D02*
X37433835Y-63050918D01*
X37433835Y-63050918D02*
X37052882Y-63127108D01*
X38386216Y-63393775D02*
X38386216Y-62593775D01*
X38386216Y-62898537D02*
X38462406Y-62860441D01*
X38462406Y-62860441D02*
X38614787Y-62860441D01*
X38614787Y-62860441D02*
X38690978Y-62898537D01*
X38690978Y-62898537D02*
X38729073Y-62936632D01*
X38729073Y-62936632D02*
X38767168Y-63012822D01*
X38767168Y-63012822D02*
X38767168Y-63241394D01*
X38767168Y-63241394D02*
X38729073Y-63317584D01*
X38729073Y-63317584D02*
X38690978Y-63355680D01*
X38690978Y-63355680D02*
X38614787Y-63393775D01*
X38614787Y-63393775D02*
X38462406Y-63393775D01*
X38462406Y-63393775D02*
X38386216Y-63355680D01*
X39033835Y-62860441D02*
X39224311Y-63393775D01*
X39414788Y-62860441D02*
X39224311Y-63393775D01*
X39224311Y-63393775D02*
X39148121Y-63584251D01*
X39148121Y-63584251D02*
X39110026Y-63622346D01*
X39110026Y-63622346D02*
X39033835Y-63660441D01*
X40329074Y-63393775D02*
X40329074Y-62593775D01*
X40329074Y-62593775D02*
X40786217Y-63393775D01*
X40786217Y-63393775D02*
X40786217Y-62593775D01*
X41167169Y-63393775D02*
X41167169Y-62860441D01*
X41167169Y-62593775D02*
X41129073Y-62631870D01*
X41129073Y-62631870D02*
X41167169Y-62669965D01*
X41167169Y-62669965D02*
X41205264Y-62631870D01*
X41205264Y-62631870D02*
X41167169Y-62593775D01*
X41167169Y-62593775D02*
X41167169Y-62669965D01*
X41548121Y-63393775D02*
X41548121Y-62593775D01*
X41624311Y-63089013D02*
X41852883Y-63393775D01*
X41852883Y-62860441D02*
X41548121Y-63165203D01*
X42195740Y-63393775D02*
X42195740Y-62593775D01*
X42195740Y-62593775D02*
X42652883Y-63393775D01*
X42652883Y-63393775D02*
X42652883Y-62593775D01*
X43376692Y-63393775D02*
X43376692Y-62974727D01*
X43376692Y-62974727D02*
X43338597Y-62898537D01*
X43338597Y-62898537D02*
X43262406Y-62860441D01*
X43262406Y-62860441D02*
X43110025Y-62860441D01*
X43110025Y-62860441D02*
X43033835Y-62898537D01*
X43376692Y-63355680D02*
X43300501Y-63393775D01*
X43300501Y-63393775D02*
X43110025Y-63393775D01*
X43110025Y-63393775D02*
X43033835Y-63355680D01*
X43033835Y-63355680D02*
X42995739Y-63279489D01*
X42995739Y-63279489D02*
X42995739Y-63203299D01*
X42995739Y-63203299D02*
X43033835Y-63127108D01*
X43033835Y-63127108D02*
X43110025Y-63089013D01*
X43110025Y-63089013D02*
X43300501Y-63089013D01*
X43300501Y-63089013D02*
X43376692Y-63050918D01*
X43757645Y-63393775D02*
X43757645Y-62593775D01*
X43833835Y-63089013D02*
X44062407Y-63393775D01*
X44062407Y-62860441D02*
X43757645Y-63165203D01*
X44405264Y-63393775D02*
X44405264Y-62593775D01*
X44481454Y-63089013D02*
X44710026Y-63393775D01*
X44710026Y-62860441D02*
X44405264Y-63165203D01*
D11*
X14100000Y-4200000D02*
X31900000Y-4200000D01*
X31900000Y-22800000D01*
X14100000Y-22800000D01*
X14100000Y-4200000D01*
D12*
X16396667Y-35287664D02*
X16358571Y-35325760D01*
X16358571Y-35325760D02*
X16244286Y-35363855D01*
X16244286Y-35363855D02*
X16168095Y-35363855D01*
X16168095Y-35363855D02*
X16053809Y-35325760D01*
X16053809Y-35325760D02*
X15977619Y-35249569D01*
X15977619Y-35249569D02*
X15939524Y-35173379D01*
X15939524Y-35173379D02*
X15901428Y-35020998D01*
X15901428Y-35020998D02*
X15901428Y-34906712D01*
X15901428Y-34906712D02*
X15939524Y-34754331D01*
X15939524Y-34754331D02*
X15977619Y-34678140D01*
X15977619Y-34678140D02*
X16053809Y-34601950D01*
X16053809Y-34601950D02*
X16168095Y-34563855D01*
X16168095Y-34563855D02*
X16244286Y-34563855D01*
X16244286Y-34563855D02*
X16358571Y-34601950D01*
X16358571Y-34601950D02*
X16396667Y-34640045D01*
X16701428Y-35325760D02*
X16815714Y-35363855D01*
X16815714Y-35363855D02*
X17006190Y-35363855D01*
X17006190Y-35363855D02*
X17082381Y-35325760D01*
X17082381Y-35325760D02*
X17120476Y-35287664D01*
X17120476Y-35287664D02*
X17158571Y-35211474D01*
X17158571Y-35211474D02*
X17158571Y-35135283D01*
X17158571Y-35135283D02*
X17120476Y-35059093D01*
X17120476Y-35059093D02*
X17082381Y-35020998D01*
X17082381Y-35020998D02*
X17006190Y-34982902D01*
X17006190Y-34982902D02*
X16853809Y-34944807D01*
X16853809Y-34944807D02*
X16777619Y-34906712D01*
X16777619Y-34906712D02*
X16739524Y-34868617D01*
X16739524Y-34868617D02*
X16701428Y-34792426D01*
X16701428Y-34792426D02*
X16701428Y-34716236D01*
X16701428Y-34716236D02*
X16739524Y-34640045D01*
X16739524Y-34640045D02*
X16777619Y-34601950D01*
X16777619Y-34601950D02*
X16853809Y-34563855D01*
X16853809Y-34563855D02*
X17044286Y-34563855D01*
X17044286Y-34563855D02*
X17158571Y-34601950D01*
X15710953Y-37903855D02*
X15710953Y-37103855D01*
X16549048Y-37903855D02*
X16282381Y-37522902D01*
X16091905Y-37903855D02*
X16091905Y-37103855D01*
X16091905Y-37103855D02*
X16396667Y-37103855D01*
X16396667Y-37103855D02*
X16472857Y-37141950D01*
X16472857Y-37141950D02*
X16510952Y-37180045D01*
X16510952Y-37180045D02*
X16549048Y-37256236D01*
X16549048Y-37256236D02*
X16549048Y-37370521D01*
X16549048Y-37370521D02*
X16510952Y-37446712D01*
X16510952Y-37446712D02*
X16472857Y-37484807D01*
X16472857Y-37484807D02*
X16396667Y-37522902D01*
X16396667Y-37522902D02*
X16091905Y-37522902D01*
X17425238Y-37980045D02*
X17349048Y-37941950D01*
X17349048Y-37941950D02*
X17272857Y-37865760D01*
X17272857Y-37865760D02*
X17158571Y-37751474D01*
X17158571Y-37751474D02*
X17082381Y-37713379D01*
X17082381Y-37713379D02*
X17006190Y-37713379D01*
X17044286Y-37903855D02*
X16968095Y-37865760D01*
X16968095Y-37865760D02*
X16891905Y-37789569D01*
X16891905Y-37789569D02*
X16853809Y-37637188D01*
X16853809Y-37637188D02*
X16853809Y-37370521D01*
X16853809Y-37370521D02*
X16891905Y-37218140D01*
X16891905Y-37218140D02*
X16968095Y-37141950D01*
X16968095Y-37141950D02*
X17044286Y-37103855D01*
X17044286Y-37103855D02*
X17196667Y-37103855D01*
X17196667Y-37103855D02*
X17272857Y-37141950D01*
X17272857Y-37141950D02*
X17349048Y-37218140D01*
X17349048Y-37218140D02*
X17387143Y-37370521D01*
X17387143Y-37370521D02*
X17387143Y-37637188D01*
X17387143Y-37637188D02*
X17349048Y-37789569D01*
X17349048Y-37789569D02*
X17272857Y-37865760D01*
X17272857Y-37865760D02*
X17196667Y-37903855D01*
X17196667Y-37903855D02*
X17044286Y-37903855D01*
X15272857Y-40443855D02*
X15272857Y-39643855D01*
X15272857Y-39643855D02*
X15539523Y-40215283D01*
X15539523Y-40215283D02*
X15806190Y-39643855D01*
X15806190Y-39643855D02*
X15806190Y-40443855D01*
X16339524Y-39643855D02*
X16491905Y-39643855D01*
X16491905Y-39643855D02*
X16568095Y-39681950D01*
X16568095Y-39681950D02*
X16644286Y-39758140D01*
X16644286Y-39758140D02*
X16682381Y-39910521D01*
X16682381Y-39910521D02*
X16682381Y-40177188D01*
X16682381Y-40177188D02*
X16644286Y-40329569D01*
X16644286Y-40329569D02*
X16568095Y-40405760D01*
X16568095Y-40405760D02*
X16491905Y-40443855D01*
X16491905Y-40443855D02*
X16339524Y-40443855D01*
X16339524Y-40443855D02*
X16263333Y-40405760D01*
X16263333Y-40405760D02*
X16187143Y-40329569D01*
X16187143Y-40329569D02*
X16149047Y-40177188D01*
X16149047Y-40177188D02*
X16149047Y-39910521D01*
X16149047Y-39910521D02*
X16187143Y-39758140D01*
X16187143Y-39758140D02*
X16263333Y-39681950D01*
X16263333Y-39681950D02*
X16339524Y-39643855D01*
X16987142Y-40405760D02*
X17101428Y-40443855D01*
X17101428Y-40443855D02*
X17291904Y-40443855D01*
X17291904Y-40443855D02*
X17368095Y-40405760D01*
X17368095Y-40405760D02*
X17406190Y-40367664D01*
X17406190Y-40367664D02*
X17444285Y-40291474D01*
X17444285Y-40291474D02*
X17444285Y-40215283D01*
X17444285Y-40215283D02*
X17406190Y-40139093D01*
X17406190Y-40139093D02*
X17368095Y-40100998D01*
X17368095Y-40100998D02*
X17291904Y-40062902D01*
X17291904Y-40062902D02*
X17139523Y-40024807D01*
X17139523Y-40024807D02*
X17063333Y-39986712D01*
X17063333Y-39986712D02*
X17025238Y-39948617D01*
X17025238Y-39948617D02*
X16987142Y-39872426D01*
X16987142Y-39872426D02*
X16987142Y-39796236D01*
X16987142Y-39796236D02*
X17025238Y-39720045D01*
X17025238Y-39720045D02*
X17063333Y-39681950D01*
X17063333Y-39681950D02*
X17139523Y-39643855D01*
X17139523Y-39643855D02*
X17330000Y-39643855D01*
X17330000Y-39643855D02*
X17444285Y-39681950D01*
X17787143Y-40443855D02*
X17787143Y-39643855D01*
X15501428Y-42945760D02*
X15615714Y-42983855D01*
X15615714Y-42983855D02*
X15806190Y-42983855D01*
X15806190Y-42983855D02*
X15882381Y-42945760D01*
X15882381Y-42945760D02*
X15920476Y-42907664D01*
X15920476Y-42907664D02*
X15958571Y-42831474D01*
X15958571Y-42831474D02*
X15958571Y-42755283D01*
X15958571Y-42755283D02*
X15920476Y-42679093D01*
X15920476Y-42679093D02*
X15882381Y-42640998D01*
X15882381Y-42640998D02*
X15806190Y-42602902D01*
X15806190Y-42602902D02*
X15653809Y-42564807D01*
X15653809Y-42564807D02*
X15577619Y-42526712D01*
X15577619Y-42526712D02*
X15539524Y-42488617D01*
X15539524Y-42488617D02*
X15501428Y-42412426D01*
X15501428Y-42412426D02*
X15501428Y-42336236D01*
X15501428Y-42336236D02*
X15539524Y-42260045D01*
X15539524Y-42260045D02*
X15577619Y-42221950D01*
X15577619Y-42221950D02*
X15653809Y-42183855D01*
X15653809Y-42183855D02*
X15844286Y-42183855D01*
X15844286Y-42183855D02*
X15958571Y-42221950D01*
X16758572Y-42907664D02*
X16720476Y-42945760D01*
X16720476Y-42945760D02*
X16606191Y-42983855D01*
X16606191Y-42983855D02*
X16530000Y-42983855D01*
X16530000Y-42983855D02*
X16415714Y-42945760D01*
X16415714Y-42945760D02*
X16339524Y-42869569D01*
X16339524Y-42869569D02*
X16301429Y-42793379D01*
X16301429Y-42793379D02*
X16263333Y-42640998D01*
X16263333Y-42640998D02*
X16263333Y-42526712D01*
X16263333Y-42526712D02*
X16301429Y-42374331D01*
X16301429Y-42374331D02*
X16339524Y-42298140D01*
X16339524Y-42298140D02*
X16415714Y-42221950D01*
X16415714Y-42221950D02*
X16530000Y-42183855D01*
X16530000Y-42183855D02*
X16606191Y-42183855D01*
X16606191Y-42183855D02*
X16720476Y-42221950D01*
X16720476Y-42221950D02*
X16758572Y-42260045D01*
X17101429Y-42983855D02*
X17101429Y-42183855D01*
X17558572Y-42983855D02*
X17215714Y-42526712D01*
X17558572Y-42183855D02*
X17101429Y-42640998D01*
X15920476Y-44761950D02*
X15844286Y-44723855D01*
X15844286Y-44723855D02*
X15730000Y-44723855D01*
X15730000Y-44723855D02*
X15615714Y-44761950D01*
X15615714Y-44761950D02*
X15539524Y-44838140D01*
X15539524Y-44838140D02*
X15501429Y-44914331D01*
X15501429Y-44914331D02*
X15463333Y-45066712D01*
X15463333Y-45066712D02*
X15463333Y-45180998D01*
X15463333Y-45180998D02*
X15501429Y-45333379D01*
X15501429Y-45333379D02*
X15539524Y-45409569D01*
X15539524Y-45409569D02*
X15615714Y-45485760D01*
X15615714Y-45485760D02*
X15730000Y-45523855D01*
X15730000Y-45523855D02*
X15806191Y-45523855D01*
X15806191Y-45523855D02*
X15920476Y-45485760D01*
X15920476Y-45485760D02*
X15958572Y-45447664D01*
X15958572Y-45447664D02*
X15958572Y-45180998D01*
X15958572Y-45180998D02*
X15806191Y-45180998D01*
X16301429Y-45523855D02*
X16301429Y-44723855D01*
X16301429Y-44723855D02*
X16758572Y-45523855D01*
X16758572Y-45523855D02*
X16758572Y-44723855D01*
X17139524Y-45523855D02*
X17139524Y-44723855D01*
X17139524Y-44723855D02*
X17330000Y-44723855D01*
X17330000Y-44723855D02*
X17444286Y-44761950D01*
X17444286Y-44761950D02*
X17520476Y-44838140D01*
X17520476Y-44838140D02*
X17558571Y-44914331D01*
X17558571Y-44914331D02*
X17596667Y-45066712D01*
X17596667Y-45066712D02*
X17596667Y-45180998D01*
X17596667Y-45180998D02*
X17558571Y-45333379D01*
X17558571Y-45333379D02*
X17520476Y-45409569D01*
X17520476Y-45409569D02*
X17444286Y-45485760D01*
X17444286Y-45485760D02*
X17330000Y-45523855D01*
X17330000Y-45523855D02*
X17139524Y-45523855D01*
X28479523Y-34563855D02*
X28974761Y-34563855D01*
X28974761Y-34563855D02*
X28708095Y-34868617D01*
X28708095Y-34868617D02*
X28822380Y-34868617D01*
X28822380Y-34868617D02*
X28898571Y-34906712D01*
X28898571Y-34906712D02*
X28936666Y-34944807D01*
X28936666Y-34944807D02*
X28974761Y-35020998D01*
X28974761Y-35020998D02*
X28974761Y-35211474D01*
X28974761Y-35211474D02*
X28936666Y-35287664D01*
X28936666Y-35287664D02*
X28898571Y-35325760D01*
X28898571Y-35325760D02*
X28822380Y-35363855D01*
X28822380Y-35363855D02*
X28593809Y-35363855D01*
X28593809Y-35363855D02*
X28517618Y-35325760D01*
X28517618Y-35325760D02*
X28479523Y-35287664D01*
X29203333Y-34563855D02*
X29470000Y-35363855D01*
X29470000Y-35363855D02*
X29736666Y-34563855D01*
X29927142Y-34563855D02*
X30422380Y-34563855D01*
X30422380Y-34563855D02*
X30155714Y-34868617D01*
X30155714Y-34868617D02*
X30269999Y-34868617D01*
X30269999Y-34868617D02*
X30346190Y-34906712D01*
X30346190Y-34906712D02*
X30384285Y-34944807D01*
X30384285Y-34944807D02*
X30422380Y-35020998D01*
X30422380Y-35020998D02*
X30422380Y-35211474D01*
X30422380Y-35211474D02*
X30384285Y-35287664D01*
X30384285Y-35287664D02*
X30346190Y-35325760D01*
X30346190Y-35325760D02*
X30269999Y-35363855D01*
X30269999Y-35363855D02*
X30041428Y-35363855D01*
X30041428Y-35363855D02*
X29965237Y-35325760D01*
X29965237Y-35325760D02*
X29927142Y-35287664D01*
X28479523Y-42183855D02*
X28974761Y-42183855D01*
X28974761Y-42183855D02*
X28708095Y-42488617D01*
X28708095Y-42488617D02*
X28822380Y-42488617D01*
X28822380Y-42488617D02*
X28898571Y-42526712D01*
X28898571Y-42526712D02*
X28936666Y-42564807D01*
X28936666Y-42564807D02*
X28974761Y-42640998D01*
X28974761Y-42640998D02*
X28974761Y-42831474D01*
X28974761Y-42831474D02*
X28936666Y-42907664D01*
X28936666Y-42907664D02*
X28898571Y-42945760D01*
X28898571Y-42945760D02*
X28822380Y-42983855D01*
X28822380Y-42983855D02*
X28593809Y-42983855D01*
X28593809Y-42983855D02*
X28517618Y-42945760D01*
X28517618Y-42945760D02*
X28479523Y-42907664D01*
X29203333Y-42183855D02*
X29470000Y-42983855D01*
X29470000Y-42983855D02*
X29736666Y-42183855D01*
X29927142Y-42183855D02*
X30422380Y-42183855D01*
X30422380Y-42183855D02*
X30155714Y-42488617D01*
X30155714Y-42488617D02*
X30269999Y-42488617D01*
X30269999Y-42488617D02*
X30346190Y-42526712D01*
X30346190Y-42526712D02*
X30384285Y-42564807D01*
X30384285Y-42564807D02*
X30422380Y-42640998D01*
X30422380Y-42640998D02*
X30422380Y-42831474D01*
X30422380Y-42831474D02*
X30384285Y-42907664D01*
X30384285Y-42907664D02*
X30346190Y-42945760D01*
X30346190Y-42945760D02*
X30269999Y-42983855D01*
X30269999Y-42983855D02*
X30041428Y-42983855D01*
X30041428Y-42983855D02*
X29965237Y-42945760D01*
X29965237Y-42945760D02*
X29927142Y-42907664D01*
X28212857Y-45523855D02*
X28212857Y-44723855D01*
X28212857Y-44723855D02*
X28479523Y-45295283D01*
X28479523Y-45295283D02*
X28746190Y-44723855D01*
X28746190Y-44723855D02*
X28746190Y-45523855D01*
X29127143Y-45523855D02*
X29127143Y-44723855D01*
X29469999Y-45485760D02*
X29584285Y-45523855D01*
X29584285Y-45523855D02*
X29774761Y-45523855D01*
X29774761Y-45523855D02*
X29850952Y-45485760D01*
X29850952Y-45485760D02*
X29889047Y-45447664D01*
X29889047Y-45447664D02*
X29927142Y-45371474D01*
X29927142Y-45371474D02*
X29927142Y-45295283D01*
X29927142Y-45295283D02*
X29889047Y-45219093D01*
X29889047Y-45219093D02*
X29850952Y-45180998D01*
X29850952Y-45180998D02*
X29774761Y-45142902D01*
X29774761Y-45142902D02*
X29622380Y-45104807D01*
X29622380Y-45104807D02*
X29546190Y-45066712D01*
X29546190Y-45066712D02*
X29508095Y-45028617D01*
X29508095Y-45028617D02*
X29469999Y-44952426D01*
X29469999Y-44952426D02*
X29469999Y-44876236D01*
X29469999Y-44876236D02*
X29508095Y-44800045D01*
X29508095Y-44800045D02*
X29546190Y-44761950D01*
X29546190Y-44761950D02*
X29622380Y-44723855D01*
X29622380Y-44723855D02*
X29812857Y-44723855D01*
X29812857Y-44723855D02*
X29927142Y-44761950D01*
X30422381Y-44723855D02*
X30574762Y-44723855D01*
X30574762Y-44723855D02*
X30650952Y-44761950D01*
X30650952Y-44761950D02*
X30727143Y-44838140D01*
X30727143Y-44838140D02*
X30765238Y-44990521D01*
X30765238Y-44990521D02*
X30765238Y-45257188D01*
X30765238Y-45257188D02*
X30727143Y-45409569D01*
X30727143Y-45409569D02*
X30650952Y-45485760D01*
X30650952Y-45485760D02*
X30574762Y-45523855D01*
X30574762Y-45523855D02*
X30422381Y-45523855D01*
X30422381Y-45523855D02*
X30346190Y-45485760D01*
X30346190Y-45485760D02*
X30270000Y-45409569D01*
X30270000Y-45409569D02*
X30231904Y-45257188D01*
X30231904Y-45257188D02*
X30231904Y-44990521D01*
X30231904Y-44990521D02*
X30270000Y-44838140D01*
X30270000Y-44838140D02*
X30346190Y-44761950D01*
X30346190Y-44761950D02*
X30422381Y-44723855D01*
X35085714Y-70020283D02*
X35466667Y-70020283D01*
X35009524Y-70248855D02*
X35276191Y-69448855D01*
X35276191Y-69448855D02*
X35542857Y-70248855D01*
X35809524Y-70248855D02*
X35809524Y-69448855D01*
X35809524Y-69448855D02*
X36266667Y-70248855D01*
X36266667Y-70248855D02*
X36266667Y-69448855D01*
X36533333Y-69448855D02*
X36990476Y-69448855D01*
X36761904Y-70248855D02*
X36761904Y-69448855D01*
X43263855Y-39295237D02*
X43263855Y-38799999D01*
X43263855Y-38799999D02*
X43568617Y-39066665D01*
X43568617Y-39066665D02*
X43568617Y-38952380D01*
X43568617Y-38952380D02*
X43606712Y-38876189D01*
X43606712Y-38876189D02*
X43644807Y-38838094D01*
X43644807Y-38838094D02*
X43720998Y-38799999D01*
X43720998Y-38799999D02*
X43911474Y-38799999D01*
X43911474Y-38799999D02*
X43987664Y-38838094D01*
X43987664Y-38838094D02*
X44025760Y-38876189D01*
X44025760Y-38876189D02*
X44063855Y-38952380D01*
X44063855Y-38952380D02*
X44063855Y-39180951D01*
X44063855Y-39180951D02*
X44025760Y-39257142D01*
X44025760Y-39257142D02*
X43987664Y-39295237D01*
X43987664Y-38457141D02*
X44025760Y-38419046D01*
X44025760Y-38419046D02*
X44063855Y-38457141D01*
X44063855Y-38457141D02*
X44025760Y-38495237D01*
X44025760Y-38495237D02*
X43987664Y-38457141D01*
X43987664Y-38457141D02*
X44063855Y-38457141D01*
X43263855Y-38152380D02*
X43263855Y-37657142D01*
X43263855Y-37657142D02*
X43568617Y-37923808D01*
X43568617Y-37923808D02*
X43568617Y-37809523D01*
X43568617Y-37809523D02*
X43606712Y-37733332D01*
X43606712Y-37733332D02*
X43644807Y-37695237D01*
X43644807Y-37695237D02*
X43720998Y-37657142D01*
X43720998Y-37657142D02*
X43911474Y-37657142D01*
X43911474Y-37657142D02*
X43987664Y-37695237D01*
X43987664Y-37695237D02*
X44025760Y-37733332D01*
X44025760Y-37733332D02*
X44063855Y-37809523D01*
X44063855Y-37809523D02*
X44063855Y-38038094D01*
X44063855Y-38038094D02*
X44025760Y-38114285D01*
X44025760Y-38114285D02*
X43987664Y-38152380D01*
X43263855Y-36819046D02*
X44063855Y-36552379D01*
X44063855Y-36552379D02*
X43263855Y-36285713D01*
X43263855Y-35257141D02*
X43263855Y-35104760D01*
X43263855Y-35104760D02*
X43301950Y-35028570D01*
X43301950Y-35028570D02*
X43378140Y-34952379D01*
X43378140Y-34952379D02*
X43530521Y-34914284D01*
X43530521Y-34914284D02*
X43797188Y-34914284D01*
X43797188Y-34914284D02*
X43949569Y-34952379D01*
X43949569Y-34952379D02*
X44025760Y-35028570D01*
X44025760Y-35028570D02*
X44063855Y-35104760D01*
X44063855Y-35104760D02*
X44063855Y-35257141D01*
X44063855Y-35257141D02*
X44025760Y-35333332D01*
X44025760Y-35333332D02*
X43949569Y-35409522D01*
X43949569Y-35409522D02*
X43797188Y-35447618D01*
X43797188Y-35447618D02*
X43530521Y-35447618D01*
X43530521Y-35447618D02*
X43378140Y-35409522D01*
X43378140Y-35409522D02*
X43301950Y-35333332D01*
X43301950Y-35333332D02*
X43263855Y-35257141D01*
X44063855Y-34571427D02*
X43263855Y-34571427D01*
X43263855Y-34571427D02*
X44063855Y-34114284D01*
X44063855Y-34114284D02*
X43263855Y-34114284D01*
X44063855Y-33352380D02*
X44063855Y-33733332D01*
X44063855Y-33733332D02*
X43263855Y-33733332D01*
X43682902Y-32933332D02*
X44063855Y-32933332D01*
X43263855Y-33199999D02*
X43682902Y-32933332D01*
X43682902Y-32933332D02*
X43263855Y-32666666D01*
D13*
X20857142Y-2008557D02*
X20857142Y-2737128D01*
X20857142Y-2737128D02*
X20899999Y-2822842D01*
X20899999Y-2822842D02*
X20942857Y-2865700D01*
X20942857Y-2865700D02*
X21028571Y-2908557D01*
X21028571Y-2908557D02*
X21199999Y-2908557D01*
X21199999Y-2908557D02*
X21285714Y-2865700D01*
X21285714Y-2865700D02*
X21328571Y-2822842D01*
X21328571Y-2822842D02*
X21371428Y-2737128D01*
X21371428Y-2737128D02*
X21371428Y-2008557D01*
X21757142Y-2865700D02*
X21885714Y-2908557D01*
X21885714Y-2908557D02*
X22099999Y-2908557D01*
X22099999Y-2908557D02*
X22185714Y-2865700D01*
X22185714Y-2865700D02*
X22228571Y-2822842D01*
X22228571Y-2822842D02*
X22271428Y-2737128D01*
X22271428Y-2737128D02*
X22271428Y-2651414D01*
X22271428Y-2651414D02*
X22228571Y-2565700D01*
X22228571Y-2565700D02*
X22185714Y-2522842D01*
X22185714Y-2522842D02*
X22099999Y-2479985D01*
X22099999Y-2479985D02*
X21928571Y-2437128D01*
X21928571Y-2437128D02*
X21842856Y-2394271D01*
X21842856Y-2394271D02*
X21799999Y-2351414D01*
X21799999Y-2351414D02*
X21757142Y-2265700D01*
X21757142Y-2265700D02*
X21757142Y-2179985D01*
X21757142Y-2179985D02*
X21799999Y-2094271D01*
X21799999Y-2094271D02*
X21842856Y-2051414D01*
X21842856Y-2051414D02*
X21928571Y-2008557D01*
X21928571Y-2008557D02*
X22142856Y-2008557D01*
X22142856Y-2008557D02*
X22271428Y-2051414D01*
X22957142Y-2437128D02*
X23085714Y-2479985D01*
X23085714Y-2479985D02*
X23128571Y-2522842D01*
X23128571Y-2522842D02*
X23171428Y-2608557D01*
X23171428Y-2608557D02*
X23171428Y-2737128D01*
X23171428Y-2737128D02*
X23128571Y-2822842D01*
X23128571Y-2822842D02*
X23085714Y-2865700D01*
X23085714Y-2865700D02*
X22999999Y-2908557D01*
X22999999Y-2908557D02*
X22657142Y-2908557D01*
X22657142Y-2908557D02*
X22657142Y-2008557D01*
X22657142Y-2008557D02*
X22957142Y-2008557D01*
X22957142Y-2008557D02*
X23042857Y-2051414D01*
X23042857Y-2051414D02*
X23085714Y-2094271D01*
X23085714Y-2094271D02*
X23128571Y-2179985D01*
X23128571Y-2179985D02*
X23128571Y-2265700D01*
X23128571Y-2265700D02*
X23085714Y-2351414D01*
X23085714Y-2351414D02*
X23042857Y-2394271D01*
X23042857Y-2394271D02*
X22957142Y-2437128D01*
X22957142Y-2437128D02*
X22657142Y-2437128D01*
X23557142Y-2565700D02*
X24242857Y-2565700D01*
X25185714Y-2822842D02*
X25142857Y-2865700D01*
X25142857Y-2865700D02*
X25014285Y-2908557D01*
X25014285Y-2908557D02*
X24928571Y-2908557D01*
X24928571Y-2908557D02*
X24800000Y-2865700D01*
X24800000Y-2865700D02*
X24714285Y-2779985D01*
X24714285Y-2779985D02*
X24671428Y-2694271D01*
X24671428Y-2694271D02*
X24628571Y-2522842D01*
X24628571Y-2522842D02*
X24628571Y-2394271D01*
X24628571Y-2394271D02*
X24671428Y-2222842D01*
X24671428Y-2222842D02*
X24714285Y-2137128D01*
X24714285Y-2137128D02*
X24800000Y-2051414D01*
X24800000Y-2051414D02*
X24928571Y-2008557D01*
X24928571Y-2008557D02*
X25014285Y-2008557D01*
X25014285Y-2008557D02*
X25142857Y-2051414D01*
X25142857Y-2051414D02*
X25185714Y-2094271D01*
D10*
X17142857Y-24454299D02*
X17809523Y-25454299D01*
X17809523Y-24454299D02*
X17142857Y-25454299D01*
X18190476Y-25454299D02*
X18190476Y-24454299D01*
X18619047Y-25168584D02*
X19095237Y-25168584D01*
X18523809Y-25454299D02*
X18857142Y-24454299D01*
X18857142Y-24454299D02*
X19190475Y-25454299D01*
X19714285Y-24454299D02*
X19904761Y-24454299D01*
X19904761Y-24454299D02*
X19999999Y-24501918D01*
X19999999Y-24501918D02*
X20095237Y-24597156D01*
X20095237Y-24597156D02*
X20142856Y-24787632D01*
X20142856Y-24787632D02*
X20142856Y-25120965D01*
X20142856Y-25120965D02*
X20095237Y-25311441D01*
X20095237Y-25311441D02*
X19999999Y-25406680D01*
X19999999Y-25406680D02*
X19904761Y-25454299D01*
X19904761Y-25454299D02*
X19714285Y-25454299D01*
X19714285Y-25454299D02*
X19619047Y-25406680D01*
X19619047Y-25406680D02*
X19523809Y-25311441D01*
X19523809Y-25311441D02*
X19476190Y-25120965D01*
X19476190Y-25120965D02*
X19476190Y-24787632D01*
X19476190Y-24787632D02*
X19523809Y-24597156D01*
X19523809Y-24597156D02*
X19619047Y-24501918D01*
X19619047Y-24501918D02*
X19714285Y-24454299D01*
X21333333Y-24930489D02*
X21666666Y-24930489D01*
X21809523Y-25454299D02*
X21333333Y-25454299D01*
X21333333Y-25454299D02*
X21333333Y-24454299D01*
X21333333Y-24454299D02*
X21809523Y-24454299D01*
X22190476Y-25406680D02*
X22333333Y-25454299D01*
X22333333Y-25454299D02*
X22571428Y-25454299D01*
X22571428Y-25454299D02*
X22666666Y-25406680D01*
X22666666Y-25406680D02*
X22714285Y-25359060D01*
X22714285Y-25359060D02*
X22761904Y-25263822D01*
X22761904Y-25263822D02*
X22761904Y-25168584D01*
X22761904Y-25168584D02*
X22714285Y-25073346D01*
X22714285Y-25073346D02*
X22666666Y-25025727D01*
X22666666Y-25025727D02*
X22571428Y-24978108D01*
X22571428Y-24978108D02*
X22380952Y-24930489D01*
X22380952Y-24930489D02*
X22285714Y-24882870D01*
X22285714Y-24882870D02*
X22238095Y-24835251D01*
X22238095Y-24835251D02*
X22190476Y-24740013D01*
X22190476Y-24740013D02*
X22190476Y-24644775D01*
X22190476Y-24644775D02*
X22238095Y-24549537D01*
X22238095Y-24549537D02*
X22285714Y-24501918D01*
X22285714Y-24501918D02*
X22380952Y-24454299D01*
X22380952Y-24454299D02*
X22619047Y-24454299D01*
X22619047Y-24454299D02*
X22761904Y-24501918D01*
X23190476Y-25454299D02*
X23190476Y-24454299D01*
X23190476Y-24454299D02*
X23571428Y-24454299D01*
X23571428Y-24454299D02*
X23666666Y-24501918D01*
X23666666Y-24501918D02*
X23714285Y-24549537D01*
X23714285Y-24549537D02*
X23761904Y-24644775D01*
X23761904Y-24644775D02*
X23761904Y-24787632D01*
X23761904Y-24787632D02*
X23714285Y-24882870D01*
X23714285Y-24882870D02*
X23666666Y-24930489D01*
X23666666Y-24930489D02*
X23571428Y-24978108D01*
X23571428Y-24978108D02*
X23190476Y-24978108D01*
X24095238Y-24454299D02*
X24714285Y-24454299D01*
X24714285Y-24454299D02*
X24380952Y-24835251D01*
X24380952Y-24835251D02*
X24523809Y-24835251D01*
X24523809Y-24835251D02*
X24619047Y-24882870D01*
X24619047Y-24882870D02*
X24666666Y-24930489D01*
X24666666Y-24930489D02*
X24714285Y-25025727D01*
X24714285Y-25025727D02*
X24714285Y-25263822D01*
X24714285Y-25263822D02*
X24666666Y-25359060D01*
X24666666Y-25359060D02*
X24619047Y-25406680D01*
X24619047Y-25406680D02*
X24523809Y-25454299D01*
X24523809Y-25454299D02*
X24238095Y-25454299D01*
X24238095Y-25454299D02*
X24142857Y-25406680D01*
X24142857Y-25406680D02*
X24095238Y-25359060D01*
X25095238Y-24549537D02*
X25142857Y-24501918D01*
X25142857Y-24501918D02*
X25238095Y-24454299D01*
X25238095Y-24454299D02*
X25476190Y-24454299D01*
X25476190Y-24454299D02*
X25571428Y-24501918D01*
X25571428Y-24501918D02*
X25619047Y-24549537D01*
X25619047Y-24549537D02*
X25666666Y-24644775D01*
X25666666Y-24644775D02*
X25666666Y-24740013D01*
X25666666Y-24740013D02*
X25619047Y-24882870D01*
X25619047Y-24882870D02*
X25047619Y-25454299D01*
X25047619Y-25454299D02*
X25666666Y-25454299D01*
X26095238Y-25073346D02*
X26857143Y-25073346D01*
X27285714Y-25406680D02*
X27428571Y-25454299D01*
X27428571Y-25454299D02*
X27666666Y-25454299D01*
X27666666Y-25454299D02*
X27761904Y-25406680D01*
X27761904Y-25406680D02*
X27809523Y-25359060D01*
X27809523Y-25359060D02*
X27857142Y-25263822D01*
X27857142Y-25263822D02*
X27857142Y-25168584D01*
X27857142Y-25168584D02*
X27809523Y-25073346D01*
X27809523Y-25073346D02*
X27761904Y-25025727D01*
X27761904Y-25025727D02*
X27666666Y-24978108D01*
X27666666Y-24978108D02*
X27476190Y-24930489D01*
X27476190Y-24930489D02*
X27380952Y-24882870D01*
X27380952Y-24882870D02*
X27333333Y-24835251D01*
X27333333Y-24835251D02*
X27285714Y-24740013D01*
X27285714Y-24740013D02*
X27285714Y-24644775D01*
X27285714Y-24644775D02*
X27333333Y-24549537D01*
X27333333Y-24549537D02*
X27380952Y-24501918D01*
X27380952Y-24501918D02*
X27476190Y-24454299D01*
X27476190Y-24454299D02*
X27714285Y-24454299D01*
X27714285Y-24454299D02*
X27857142Y-24501918D01*
X28190476Y-24454299D02*
X28809523Y-24454299D01*
X28809523Y-24454299D02*
X28476190Y-24835251D01*
X28476190Y-24835251D02*
X28619047Y-24835251D01*
X28619047Y-24835251D02*
X28714285Y-24882870D01*
X28714285Y-24882870D02*
X28761904Y-24930489D01*
X28761904Y-24930489D02*
X28809523Y-25025727D01*
X28809523Y-25025727D02*
X28809523Y-25263822D01*
X28809523Y-25263822D02*
X28761904Y-25359060D01*
X28761904Y-25359060D02*
X28714285Y-25406680D01*
X28714285Y-25406680D02*
X28619047Y-25454299D01*
X28619047Y-25454299D02*
X28333333Y-25454299D01*
X28333333Y-25454299D02*
X28238095Y-25406680D01*
X28238095Y-25406680D02*
X28190476Y-25359060D01*
D14*
X34704761Y-65519243D02*
X35085714Y-65519243D01*
X34628571Y-65747815D02*
X34895238Y-64947815D01*
X34895238Y-64947815D02*
X35161904Y-65747815D01*
X35428571Y-65747815D02*
X35428571Y-64947815D01*
X35428571Y-64947815D02*
X35885714Y-65747815D01*
X35885714Y-65747815D02*
X35885714Y-64947815D01*
X36152380Y-64947815D02*
X36609523Y-64947815D01*
X36380951Y-65747815D02*
X36380951Y-64947815D01*
X37295237Y-65747815D02*
X36838094Y-65747815D01*
X37066666Y-65747815D02*
X37066666Y-64947815D01*
X37066666Y-64947815D02*
X36990475Y-65062100D01*
X36990475Y-65062100D02*
X36914285Y-65138291D01*
X36914285Y-65138291D02*
X36838094Y-65176386D01*
X24003333Y-62407815D02*
X24003333Y-62979243D01*
X24003333Y-62979243D02*
X23965238Y-63093529D01*
X23965238Y-63093529D02*
X23889047Y-63169720D01*
X23889047Y-63169720D02*
X23774762Y-63207815D01*
X23774762Y-63207815D02*
X23698571Y-63207815D01*
X24727143Y-62674481D02*
X24727143Y-63207815D01*
X24536667Y-62369720D02*
X24346190Y-62941148D01*
X24346190Y-62941148D02*
X24841429Y-62941148D01*
X22733333Y-32262815D02*
X22733333Y-32834243D01*
X22733333Y-32834243D02*
X22695238Y-32948529D01*
X22695238Y-32948529D02*
X22619047Y-33024720D01*
X22619047Y-33024720D02*
X22504762Y-33062815D01*
X22504762Y-33062815D02*
X22428571Y-33062815D01*
X23038095Y-32262815D02*
X23533333Y-32262815D01*
X23533333Y-32262815D02*
X23266667Y-32567577D01*
X23266667Y-32567577D02*
X23380952Y-32567577D01*
X23380952Y-32567577D02*
X23457143Y-32605672D01*
X23457143Y-32605672D02*
X23495238Y-32643767D01*
X23495238Y-32643767D02*
X23533333Y-32719958D01*
X23533333Y-32719958D02*
X23533333Y-32910434D01*
X23533333Y-32910434D02*
X23495238Y-32986624D01*
X23495238Y-32986624D02*
X23457143Y-33024720D01*
X23457143Y-33024720D02*
X23380952Y-33062815D01*
X23380952Y-33062815D02*
X23152381Y-33062815D01*
X23152381Y-33062815D02*
X23076190Y-33024720D01*
X23076190Y-33024720D02*
X23038095Y-32986624D01*
X18714285Y-47062815D02*
X18904761Y-47862815D01*
X18904761Y-47862815D02*
X19057142Y-47291386D01*
X19057142Y-47291386D02*
X19209523Y-47862815D01*
X19209523Y-47862815D02*
X19400000Y-47062815D01*
X19704762Y-47862815D02*
X19704762Y-47329481D01*
X19704762Y-47062815D02*
X19666666Y-47100910D01*
X19666666Y-47100910D02*
X19704762Y-47139005D01*
X19704762Y-47139005D02*
X19742857Y-47100910D01*
X19742857Y-47100910D02*
X19704762Y-47062815D01*
X19704762Y-47062815D02*
X19704762Y-47139005D01*
X20047618Y-47824720D02*
X20161904Y-47862815D01*
X20161904Y-47862815D02*
X20352380Y-47862815D01*
X20352380Y-47862815D02*
X20428571Y-47824720D01*
X20428571Y-47824720D02*
X20466666Y-47786624D01*
X20466666Y-47786624D02*
X20504761Y-47710434D01*
X20504761Y-47710434D02*
X20504761Y-47634243D01*
X20504761Y-47634243D02*
X20466666Y-47558053D01*
X20466666Y-47558053D02*
X20428571Y-47519958D01*
X20428571Y-47519958D02*
X20352380Y-47481862D01*
X20352380Y-47481862D02*
X20199999Y-47443767D01*
X20199999Y-47443767D02*
X20123809Y-47405672D01*
X20123809Y-47405672D02*
X20085714Y-47367577D01*
X20085714Y-47367577D02*
X20047618Y-47291386D01*
X20047618Y-47291386D02*
X20047618Y-47215196D01*
X20047618Y-47215196D02*
X20085714Y-47139005D01*
X20085714Y-47139005D02*
X20123809Y-47100910D01*
X20123809Y-47100910D02*
X20199999Y-47062815D01*
X20199999Y-47062815D02*
X20390476Y-47062815D01*
X20390476Y-47062815D02*
X20504761Y-47100910D01*
X21190476Y-47862815D02*
X21190476Y-47443767D01*
X21190476Y-47443767D02*
X21152381Y-47367577D01*
X21152381Y-47367577D02*
X21076190Y-47329481D01*
X21076190Y-47329481D02*
X20923809Y-47329481D01*
X20923809Y-47329481D02*
X20847619Y-47367577D01*
X21190476Y-47824720D02*
X21114285Y-47862815D01*
X21114285Y-47862815D02*
X20923809Y-47862815D01*
X20923809Y-47862815D02*
X20847619Y-47824720D01*
X20847619Y-47824720D02*
X20809523Y-47748529D01*
X20809523Y-47748529D02*
X20809523Y-47672339D01*
X20809523Y-47672339D02*
X20847619Y-47596148D01*
X20847619Y-47596148D02*
X20923809Y-47558053D01*
X20923809Y-47558053D02*
X21114285Y-47558053D01*
X21114285Y-47558053D02*
X21190476Y-47519958D01*
X21457143Y-47329481D02*
X21761905Y-47329481D01*
X21571429Y-47862815D02*
X21571429Y-47177100D01*
X21571429Y-47177100D02*
X21609524Y-47100910D01*
X21609524Y-47100910D02*
X21685714Y-47062815D01*
X21685714Y-47062815D02*
X21761905Y-47062815D01*
X22333334Y-47824720D02*
X22257143Y-47862815D01*
X22257143Y-47862815D02*
X22104762Y-47862815D01*
X22104762Y-47862815D02*
X22028572Y-47824720D01*
X22028572Y-47824720D02*
X21990476Y-47748529D01*
X21990476Y-47748529D02*
X21990476Y-47443767D01*
X21990476Y-47443767D02*
X22028572Y-47367577D01*
X22028572Y-47367577D02*
X22104762Y-47329481D01*
X22104762Y-47329481D02*
X22257143Y-47329481D01*
X22257143Y-47329481D02*
X22333334Y-47367577D01*
X22333334Y-47367577D02*
X22371429Y-47443767D01*
X22371429Y-47443767D02*
X22371429Y-47519958D01*
X22371429Y-47519958D02*
X21990476Y-47596148D01*
X22676190Y-47139005D02*
X22714286Y-47100910D01*
X22714286Y-47100910D02*
X22790476Y-47062815D01*
X22790476Y-47062815D02*
X22980952Y-47062815D01*
X22980952Y-47062815D02*
X23057143Y-47100910D01*
X23057143Y-47100910D02*
X23095238Y-47139005D01*
X23095238Y-47139005D02*
X23133333Y-47215196D01*
X23133333Y-47215196D02*
X23133333Y-47291386D01*
X23133333Y-47291386D02*
X23095238Y-47405672D01*
X23095238Y-47405672D02*
X22638095Y-47862815D01*
X22638095Y-47862815D02*
X23133333Y-47862815D01*
X24542858Y-47862815D02*
X24276191Y-47481862D01*
X24085715Y-47862815D02*
X24085715Y-47062815D01*
X24085715Y-47062815D02*
X24390477Y-47062815D01*
X24390477Y-47062815D02*
X24466667Y-47100910D01*
X24466667Y-47100910D02*
X24504762Y-47139005D01*
X24504762Y-47139005D02*
X24542858Y-47215196D01*
X24542858Y-47215196D02*
X24542858Y-47329481D01*
X24542858Y-47329481D02*
X24504762Y-47405672D01*
X24504762Y-47405672D02*
X24466667Y-47443767D01*
X24466667Y-47443767D02*
X24390477Y-47481862D01*
X24390477Y-47481862D02*
X24085715Y-47481862D01*
X24847619Y-47634243D02*
X25228572Y-47634243D01*
X24771429Y-47862815D02*
X25038096Y-47062815D01*
X25038096Y-47062815D02*
X25304762Y-47862815D01*
X25571429Y-47862815D02*
X25571429Y-47062815D01*
X25571429Y-47062815D02*
X25761905Y-47062815D01*
X25761905Y-47062815D02*
X25876191Y-47100910D01*
X25876191Y-47100910D02*
X25952381Y-47177100D01*
X25952381Y-47177100D02*
X25990476Y-47253291D01*
X25990476Y-47253291D02*
X26028572Y-47405672D01*
X26028572Y-47405672D02*
X26028572Y-47519958D01*
X26028572Y-47519958D02*
X25990476Y-47672339D01*
X25990476Y-47672339D02*
X25952381Y-47748529D01*
X25952381Y-47748529D02*
X25876191Y-47824720D01*
X25876191Y-47824720D02*
X25761905Y-47862815D01*
X25761905Y-47862815D02*
X25571429Y-47862815D01*
X26371429Y-47862815D02*
X26371429Y-47062815D01*
X26904762Y-47062815D02*
X27057143Y-47062815D01*
X27057143Y-47062815D02*
X27133333Y-47100910D01*
X27133333Y-47100910D02*
X27209524Y-47177100D01*
X27209524Y-47177100D02*
X27247619Y-47329481D01*
X27247619Y-47329481D02*
X27247619Y-47596148D01*
X27247619Y-47596148D02*
X27209524Y-47748529D01*
X27209524Y-47748529D02*
X27133333Y-47824720D01*
X27133333Y-47824720D02*
X27057143Y-47862815D01*
X27057143Y-47862815D02*
X26904762Y-47862815D01*
X26904762Y-47862815D02*
X26828571Y-47824720D01*
X26828571Y-47824720D02*
X26752381Y-47748529D01*
X26752381Y-47748529D02*
X26714285Y-47596148D01*
X26714285Y-47596148D02*
X26714285Y-47329481D01*
X26714285Y-47329481D02*
X26752381Y-47177100D01*
X26752381Y-47177100D02*
X26828571Y-47100910D01*
X26828571Y-47100910D02*
X26904762Y-47062815D01*
M02*
